<mxfile host="Electron" agent="Mozilla/5.0 (X11; Linux x86_64) AppleWebKit/537.36 (KHTML, like Gecko) draw.io/26.0.9 Chrome/128.0.6613.186 Electron/32.2.5 Safari/537.36" version="26.0.9">
  <diagram name="Page-1" id="Hbnf64Dpp4OHPYfa4F6F">
    <mxGraphModel dx="819" dy="547" grid="1" gridSize="10" guides="1" tooltips="1" connect="1" arrows="1" fold="1" page="1" pageScale="1" pageWidth="827" pageHeight="1169" math="0" shadow="0">
      <root>
        <mxCell id="0" />
        <mxCell id="1" parent="0" />
        <mxCell id="1H_v1rwzwdLI8AuLXujV-31" value="MIC" style="rounded=1;whiteSpace=wrap;html=1;fillColor=#f8cecc;strokeColor=#b85450;" vertex="1" parent="1">
          <mxGeometry x="880" y="1169" width="320" height="20" as="geometry" />
        </mxCell>
        <mxCell id="1H_v1rwzwdLI8AuLXujV-37" value="MIC" style="rounded=1;whiteSpace=wrap;html=1;fillColor=#f8cecc;strokeColor=#b85450;" vertex="1" parent="1">
          <mxGeometry x="880" y="1189" width="320" height="20" as="geometry" />
        </mxCell>
        <mxCell id="1H_v1rwzwdLI8AuLXujV-29" value="MIC" style="rounded=1;whiteSpace=wrap;html=1;fillColor=#f8cecc;strokeColor=#b85450;" vertex="1" parent="1">
          <mxGeometry x="1040" y="1147.5" width="160" height="20" as="geometry" />
        </mxCell>
        <mxCell id="1H_v1rwzwdLI8AuLXujV-25" value="Encrypted Frame" style="rounded=1;whiteSpace=wrap;html=1;fillColor=#f8cecc;strokeColor=#b85450;" vertex="1" parent="1">
          <mxGeometry x="880" y="1147.5" width="160" height="20" as="geometry" />
        </mxCell>
        <mxCell id="1H_v1rwzwdLI8AuLXujV-21" value="Encrypted Frame" style="rounded=1;whiteSpace=wrap;html=1;fillColor=#f8cecc;strokeColor=#b85450;" vertex="1" parent="1">
          <mxGeometry x="880" y="1120" width="320" height="20" as="geometry" />
        </mxCell>
        <mxCell id="1H_v1rwzwdLI8AuLXujV-19" value="Encrypted Frame" style="rounded=1;whiteSpace=wrap;html=1;fillColor=#f8cecc;strokeColor=#b85450;" vertex="1" parent="1">
          <mxGeometry x="1040" y="1100" width="160" height="20" as="geometry" />
        </mxCell>
        <mxCell id="1H_v1rwzwdLI8AuLXujV-14" value="Time Stamp" style="rounded=1;whiteSpace=wrap;html=1;fillColor=#f8cecc;strokeColor=#b85450;" vertex="1" parent="1">
          <mxGeometry x="880" y="1100" width="80" height="20" as="geometry" />
        </mxCell>
        <mxCell id="1H_v1rwzwdLI8AuLXujV-13" value="Time Stamp" style="rounded=1;whiteSpace=wrap;html=1;fillColor=#f8cecc;strokeColor=#b85450;" vertex="1" parent="1">
          <mxGeometry x="960" y="1080" width="240" height="20" as="geometry" />
        </mxCell>
        <mxCell id="1H_v1rwzwdLI8AuLXujV-12" value="Packet Length" style="rounded=1;whiteSpace=wrap;html=1;fillColor=#f8cecc;strokeColor=#b85450;" vertex="1" parent="1">
          <mxGeometry x="880" y="1080" width="80" height="20" as="geometry" />
        </mxCell>
        <mxCell id="FZoFbabwsnSWecllxkjN-2" value="" style="shape=image;verticalLabelPosition=bottom;labelBackgroundColor=default;verticalAlign=top;aspect=fixed;imageAspect=0;image=https://rules.ectf.mitre.org/_images/Sat_Build.png;" parent="1" vertex="1">
          <mxGeometry x="60" y="40" width="719.1" height="320" as="geometry" />
        </mxCell>
        <mxCell id="FZoFbabwsnSWecllxkjN-5" value="&lt;font&gt;Crypto Scheme&lt;/font&gt;" style="text;html=1;align=left;verticalAlign=middle;whiteSpace=wrap;rounded=0;fontSize=18;" parent="1" vertex="1">
          <mxGeometry x="36" y="380" width="260" height="30" as="geometry" />
        </mxCell>
        <mxCell id="FZoFbabwsnSWecllxkjN-32" style="edgeStyle=orthogonalEdgeStyle;rounded=0;orthogonalLoop=1;jettySize=auto;html=1;exitX=1;exitY=0.5;exitDx=0;exitDy=0;entryX=0;entryY=0.25;entryDx=0;entryDy=0;" parent="1" source="FZoFbabwsnSWecllxkjN-15" target="FZoFbabwsnSWecllxkjN-24" edge="1">
          <mxGeometry relative="1" as="geometry" />
        </mxCell>
        <mxCell id="FZoFbabwsnSWecllxkjN-35" style="edgeStyle=orthogonalEdgeStyle;rounded=0;orthogonalLoop=1;jettySize=auto;html=1;exitX=1;exitY=0.5;exitDx=0;exitDy=0;entryX=0.5;entryY=0;entryDx=0;entryDy=0;" parent="1" source="FZoFbabwsnSWecllxkjN-15" target="FZoFbabwsnSWecllxkjN-51" edge="1">
          <mxGeometry relative="1" as="geometry">
            <mxPoint x="520" y="1170" as="targetPoint" />
            <Array as="points">
              <mxPoint x="470" y="1060" />
              <mxPoint x="470" y="1150" />
              <mxPoint x="555" y="1150" />
            </Array>
          </mxGeometry>
        </mxCell>
        <mxCell id="FZoFbabwsnSWecllxkjN-15" value="Frame Secret Key" style="rounded=1;whiteSpace=wrap;html=1;fillColor=#e1d5e7;strokeColor=#9673a6;" parent="1" vertex="1">
          <mxGeometry x="330" y="1050" width="120" height="20" as="geometry" />
        </mxCell>
        <mxCell id="FZoFbabwsnSWecllxkjN-33" style="edgeStyle=orthogonalEdgeStyle;rounded=0;orthogonalLoop=1;jettySize=auto;html=1;exitX=1;exitY=0.5;exitDx=0;exitDy=0;entryX=0;entryY=0.75;entryDx=0;entryDy=0;" parent="1" source="FZoFbabwsnSWecllxkjN-16" target="FZoFbabwsnSWecllxkjN-24" edge="1">
          <mxGeometry relative="1" as="geometry" />
        </mxCell>
        <mxCell id="FZoFbabwsnSWecllxkjN-48" style="edgeStyle=orthogonalEdgeStyle;rounded=0;orthogonalLoop=1;jettySize=auto;html=1;exitX=1;exitY=0.5;exitDx=0;exitDy=0;entryX=0;entryY=0;entryDx=0;entryDy=0;" parent="1" source="FZoFbabwsnSWecllxkjN-24" target="FZoFbabwsnSWecllxkjN-51" edge="1">
          <mxGeometry relative="1" as="geometry">
            <mxPoint x="520" y="1180" as="targetPoint" />
            <Array as="points">
              <mxPoint x="600" y="1080" />
              <mxPoint x="600" y="1120" />
              <mxPoint x="460" y="1120" />
              <mxPoint x="460" y="1165" />
            </Array>
          </mxGeometry>
        </mxCell>
        <mxCell id="FZoFbabwsnSWecllxkjN-16" value="Frame Data" style="rounded=1;whiteSpace=wrap;html=1;fillColor=#ffe6cc;strokeColor=#d79b00;" parent="1" vertex="1">
          <mxGeometry x="330" y="1090" width="120" height="20" as="geometry" />
        </mxCell>
        <mxCell id="FZoFbabwsnSWecllxkjN-18" value="&lt;font style=&quot;font-size: 16px;&quot;&gt;Secret Keys&lt;/font&gt;" style="text;html=1;align=left;verticalAlign=middle;whiteSpace=wrap;rounded=0;" parent="1" vertex="1">
          <mxGeometry x="40" y="510" width="260" height="30" as="geometry" />
        </mxCell>
        <mxCell id="FZoFbabwsnSWecllxkjN-19" value="Secret Keys:&lt;div&gt;&lt;ul&gt;&lt;li&gt;Can be calculated at encoder &amp;amp; decoder&lt;/li&gt;&lt;li&gt;Must be impossible for attackers to gain access to!!&lt;/li&gt;&lt;/ul&gt;&lt;/div&gt;" style="text;html=1;align=left;verticalAlign=top;whiteSpace=wrap;rounded=0;" parent="1" vertex="1">
          <mxGeometry x="500" y="565" width="320" height="75" as="geometry" />
        </mxCell>
        <mxCell id="FZoFbabwsnSWecllxkjN-23" value="&lt;font style=&quot;font-size: 16px;&quot;&gt;Frame Encoding&lt;/font&gt;" style="text;html=1;align=left;verticalAlign=middle;whiteSpace=wrap;rounded=0;" parent="1" vertex="1">
          <mxGeometry x="40" y="920" width="260" height="30" as="geometry" />
        </mxCell>
        <mxCell id="FZoFbabwsnSWecllxkjN-54" style="edgeStyle=orthogonalEdgeStyle;rounded=0;orthogonalLoop=1;jettySize=auto;html=1;exitX=1;exitY=0.5;exitDx=0;exitDy=0;entryX=0;entryY=0.5;entryDx=0;entryDy=0;" parent="1" source="FZoFbabwsnSWecllxkjN-24" target="FZoFbabwsnSWecllxkjN-52" edge="1">
          <mxGeometry relative="1" as="geometry" />
        </mxCell>
        <mxCell id="FZoFbabwsnSWecllxkjN-24" value="AES" style="rounded=0;whiteSpace=wrap;html=1;fillColor=#f5f5f5;fontColor=#333333;strokeColor=#666666;" parent="1" vertex="1">
          <mxGeometry x="520" y="1060" width="70" height="40" as="geometry" />
        </mxCell>
        <mxCell id="FZoFbabwsnSWecllxkjN-31" style="edgeStyle=orthogonalEdgeStyle;rounded=0;orthogonalLoop=1;jettySize=auto;html=1;exitX=1;exitY=0.5;exitDx=0;exitDy=0;entryX=0;entryY=0.25;entryDx=0;entryDy=0;" parent="1" edge="1">
          <mxGeometry relative="1" as="geometry">
            <mxPoint x="220" y="705" as="targetPoint" />
          </mxGeometry>
        </mxCell>
        <mxCell id="FZoFbabwsnSWecllxkjN-36" value="Encrypt Data" style="text;html=1;align=center;verticalAlign=middle;whiteSpace=wrap;rounded=0;" parent="1" vertex="1">
          <mxGeometry x="520" y="1030" width="70" height="30" as="geometry" />
        </mxCell>
        <mxCell id="FZoFbabwsnSWecllxkjN-37" value="Sign Data" style="text;html=1;align=center;verticalAlign=middle;whiteSpace=wrap;rounded=0;" parent="1" vertex="1">
          <mxGeometry x="520" y="1120" width="70" height="30" as="geometry" />
        </mxCell>
        <mxCell id="FZoFbabwsnSWecllxkjN-40" value="Channel Key (GS)" style="rounded=1;whiteSpace=wrap;html=1;fillColor=#d5e8d4;strokeColor=#82b366;" parent="1" vertex="1">
          <mxGeometry x="41.43" y="1010" width="120" height="20" as="geometry" />
        </mxCell>
        <mxCell id="FZoFbabwsnSWecllxkjN-41" style="edgeStyle=orthogonalEdgeStyle;rounded=0;orthogonalLoop=1;jettySize=auto;html=1;exitX=1;exitY=0.5;exitDx=0;exitDy=0;entryX=0;entryY=0.5;entryDx=0;entryDy=0;" parent="1" source="FZoFbabwsnSWecllxkjN-42" edge="1">
          <mxGeometry relative="1" as="geometry">
            <mxPoint x="220" y="1060" as="targetPoint" />
          </mxGeometry>
        </mxCell>
        <mxCell id="FZoFbabwsnSWecllxkjN-49" style="edgeStyle=orthogonalEdgeStyle;rounded=0;orthogonalLoop=1;jettySize=auto;html=1;exitX=1;exitY=0.5;exitDx=0;exitDy=0;entryX=0;entryY=0.25;entryDx=0;entryDy=0;" parent="1" source="FZoFbabwsnSWecllxkjN-42" target="FZoFbabwsnSWecllxkjN-51" edge="1">
          <mxGeometry relative="1" as="geometry">
            <mxPoint x="520" y="1190" as="targetPoint" />
            <Array as="points">
              <mxPoint x="190" y="1060" />
              <mxPoint x="190" y="1175" />
            </Array>
          </mxGeometry>
        </mxCell>
        <mxCell id="FZoFbabwsnSWecllxkjN-42" value="Time Stamp" style="rounded=1;whiteSpace=wrap;html=1;fillColor=#fff2cc;strokeColor=#d6b656;" parent="1" vertex="1">
          <mxGeometry x="40" y="1050" width="120" height="20" as="geometry" />
        </mxCell>
        <mxCell id="FZoFbabwsnSWecllxkjN-47" style="edgeStyle=orthogonalEdgeStyle;rounded=0;orthogonalLoop=1;jettySize=auto;html=1;exitX=1.011;exitY=0.442;exitDx=0;exitDy=0;entryX=0;entryY=0.5;entryDx=0;entryDy=0;exitPerimeter=0;" parent="1" source="_PfdmNzppAyqhTIvQ9N5-28" target="FZoFbabwsnSWecllxkjN-15" edge="1">
          <mxGeometry relative="1" as="geometry">
            <mxPoint x="290" y="1060" as="sourcePoint" />
            <Array as="points">
              <mxPoint x="310" y="1053" />
              <mxPoint x="310" y="1060" />
            </Array>
          </mxGeometry>
        </mxCell>
        <mxCell id="FZoFbabwsnSWecllxkjN-44" style="edgeStyle=orthogonalEdgeStyle;rounded=0;orthogonalLoop=1;jettySize=auto;html=1;exitX=1;exitY=0.5;exitDx=0;exitDy=0;entryX=0;entryY=0;entryDx=0;entryDy=0;" parent="1" source="FZoFbabwsnSWecllxkjN-40" edge="1">
          <mxGeometry relative="1" as="geometry">
            <mxPoint x="220" y="1040" as="targetPoint" />
            <Array as="points">
              <mxPoint x="200" y="1020" />
              <mxPoint x="200" y="1040" />
            </Array>
          </mxGeometry>
        </mxCell>
        <mxCell id="FZoFbabwsnSWecllxkjN-45" style="edgeStyle=orthogonalEdgeStyle;rounded=0;orthogonalLoop=1;jettySize=auto;html=1;exitX=1;exitY=0.5;exitDx=0;exitDy=0;entryX=0;entryY=0.75;entryDx=0;entryDy=0;" parent="1" source="FZoFbabwsnSWecllxkjN-46" edge="1">
          <mxGeometry relative="1" as="geometry">
            <mxPoint x="220" y="1070" as="targetPoint" />
            <Array as="points">
              <mxPoint x="200" y="1095" />
              <mxPoint x="200" y="1070" />
            </Array>
          </mxGeometry>
        </mxCell>
        <mxCell id="FZoFbabwsnSWecllxkjN-50" style="edgeStyle=orthogonalEdgeStyle;rounded=0;orthogonalLoop=1;jettySize=auto;html=1;exitX=1;exitY=0.5;exitDx=0;exitDy=0;entryX=0;entryY=0.5;entryDx=0;entryDy=0;" parent="1" source="FZoFbabwsnSWecllxkjN-46" target="FZoFbabwsnSWecllxkjN-51" edge="1">
          <mxGeometry relative="1" as="geometry">
            <mxPoint x="520.0000000000002" y="1200" as="targetPoint" />
            <Array as="points">
              <mxPoint x="180" y="1095" />
              <mxPoint x="180" y="1185" />
            </Array>
          </mxGeometry>
        </mxCell>
        <mxCell id="FZoFbabwsnSWecllxkjN-46" value="Channel Num" style="rounded=1;whiteSpace=wrap;html=1;fillColor=#f8cecc;strokeColor=#b85450;" parent="1" vertex="1">
          <mxGeometry x="40" y="1085" width="120" height="20" as="geometry" />
        </mxCell>
        <mxCell id="FZoFbabwsnSWecllxkjN-55" style="edgeStyle=orthogonalEdgeStyle;rounded=0;orthogonalLoop=1;jettySize=auto;html=1;exitX=1;exitY=0.5;exitDx=0;exitDy=0;entryX=0;entryY=0.5;entryDx=0;entryDy=0;" parent="1" source="FZoFbabwsnSWecllxkjN-51" target="FZoFbabwsnSWecllxkjN-53" edge="1">
          <mxGeometry relative="1" as="geometry" />
        </mxCell>
        <mxCell id="FZoFbabwsnSWecllxkjN-51" value="AES CMAC" style="rounded=0;whiteSpace=wrap;html=1;fillColor=#f5f5f5;fontColor=#333333;strokeColor=#666666;" parent="1" vertex="1">
          <mxGeometry x="520" y="1165" width="70" height="40" as="geometry" />
        </mxCell>
        <mxCell id="FZoFbabwsnSWecllxkjN-52" value="Encrypted Frame" style="rounded=1;whiteSpace=wrap;html=1;fillColor=#f8cecc;strokeColor=#b85450;" parent="1" vertex="1">
          <mxGeometry x="639.1" y="1080" width="120" height="20" as="geometry" />
        </mxCell>
        <mxCell id="FZoFbabwsnSWecllxkjN-53" value="MIC" style="rounded=1;whiteSpace=wrap;html=1;fillColor=#f8cecc;strokeColor=#b85450;" parent="1" vertex="1">
          <mxGeometry x="639.1" y="1100" width="120" height="20" as="geometry" />
        </mxCell>
        <mxCell id="FZoFbabwsnSWecllxkjN-56" value="Time Stamp" style="rounded=1;whiteSpace=wrap;html=1;fillColor=#f8cecc;strokeColor=#b85450;" parent="1" vertex="1">
          <mxGeometry x="639.1" y="1040" width="120" height="20" as="geometry" />
        </mxCell>
        <mxCell id="FZoFbabwsnSWecllxkjN-57" value="Transmitted Frame" style="text;html=1;align=center;verticalAlign=middle;whiteSpace=wrap;rounded=0;" parent="1" vertex="1">
          <mxGeometry x="639.1" y="990" width="120" height="30" as="geometry" />
        </mxCell>
        <mxCell id="FZoFbabwsnSWecllxkjN-58" value="Packet Length" style="rounded=1;whiteSpace=wrap;html=1;fillColor=#f8cecc;strokeColor=#b85450;" parent="1" vertex="1">
          <mxGeometry x="639.1" y="1020" width="120" height="20" as="geometry" />
        </mxCell>
        <mxCell id="FZoFbabwsnSWecllxkjN-61" value="&lt;font style=&quot;font-size: 16px;&quot;&gt;Aim&lt;/font&gt;" style="text;html=1;align=left;verticalAlign=middle;whiteSpace=wrap;rounded=0;" parent="1" vertex="1">
          <mxGeometry x="36" y="410" width="260" height="30" as="geometry" />
        </mxCell>
        <mxCell id="FZoFbabwsnSWecllxkjN-62" value="&lt;ul&gt;&lt;li&gt;&lt;span style=&quot;background-color: transparent; color: light-dark(rgb(0, 0, 0), rgb(255, 255, 255));&quot;&gt;Must be resilent against all attacks listed:&amp;nbsp;&lt;/span&gt;https://rules.ectf.mitre.org/2025/flags/attack_flags.html&lt;/li&gt;&lt;li&gt;Stick to AES and derivatives as the MCU has a AES accelerator&lt;br&gt;&lt;/li&gt;&lt;ul&gt;&lt;li&gt;Fast :)&lt;/li&gt;&lt;/ul&gt;&lt;/ul&gt;" style="text;html=1;align=left;verticalAlign=top;whiteSpace=wrap;rounded=0;" parent="1" vertex="1">
          <mxGeometry x="16" y="420" width="640" height="60" as="geometry" />
        </mxCell>
        <mxCell id="FZoFbabwsnSWecllxkjN-63" value="&lt;font style=&quot;font-size: 16px;&quot;&gt;Frame Decoding&lt;/font&gt;" style="text;html=1;align=left;verticalAlign=middle;whiteSpace=wrap;rounded=0;" parent="1" vertex="1">
          <mxGeometry x="40" y="1240" width="260" height="30" as="geometry" />
        </mxCell>
        <mxCell id="FZoFbabwsnSWecllxkjN-86" style="edgeStyle=orthogonalEdgeStyle;rounded=0;orthogonalLoop=1;jettySize=auto;html=1;exitX=1;exitY=0.5;exitDx=0;exitDy=0;entryX=0;entryY=0.75;entryDx=0;entryDy=0;" parent="1" source="FZoFbabwsnSWecllxkjN-64" target="FZoFbabwsnSWecllxkjN-83" edge="1">
          <mxGeometry relative="1" as="geometry">
            <Array as="points">
              <mxPoint x="220" y="1460" />
              <mxPoint x="220" y="1420" />
            </Array>
          </mxGeometry>
        </mxCell>
        <mxCell id="_PfdmNzppAyqhTIvQ9N5-98" style="edgeStyle=orthogonalEdgeStyle;rounded=0;orthogonalLoop=1;jettySize=auto;html=1;exitX=1;exitY=0.5;exitDx=0;exitDy=0;entryX=0;entryY=0.75;entryDx=0;entryDy=0;" parent="1" source="FZoFbabwsnSWecllxkjN-64" target="FZoFbabwsnSWecllxkjN-96" edge="1">
          <mxGeometry relative="1" as="geometry">
            <Array as="points">
              <mxPoint x="220" y="1460" />
              <mxPoint x="220" y="1546" />
            </Array>
          </mxGeometry>
        </mxCell>
        <mxCell id="FZoFbabwsnSWecllxkjN-64" value="Encrypted Frame" style="rounded=1;whiteSpace=wrap;html=1;fillColor=#f8cecc;strokeColor=#b85450;" parent="1" vertex="1">
          <mxGeometry x="40" y="1450" width="120" height="20" as="geometry" />
        </mxCell>
        <mxCell id="FZoFbabwsnSWecllxkjN-102" style="edgeStyle=orthogonalEdgeStyle;rounded=0;orthogonalLoop=1;jettySize=auto;html=1;exitX=1;exitY=0.5;exitDx=0;exitDy=0;entryX=0;entryY=0.25;entryDx=0;entryDy=0;" parent="1" source="FZoFbabwsnSWecllxkjN-65" target="FZoFbabwsnSWecllxkjN-101" edge="1">
          <mxGeometry relative="1" as="geometry">
            <Array as="points">
              <mxPoint x="620" y="1480" />
              <mxPoint x="620" y="1516" />
            </Array>
          </mxGeometry>
        </mxCell>
        <mxCell id="FZoFbabwsnSWecllxkjN-65" value="MIC" style="rounded=1;whiteSpace=wrap;html=1;fillColor=#f8cecc;strokeColor=#b85450;" parent="1" vertex="1">
          <mxGeometry x="40" y="1470" width="120" height="20" as="geometry" />
        </mxCell>
        <mxCell id="FZoFbabwsnSWecllxkjN-80" style="edgeStyle=orthogonalEdgeStyle;rounded=0;orthogonalLoop=1;jettySize=auto;html=1;exitX=1;exitY=0.5;exitDx=0;exitDy=0;entryX=0;entryY=0.5;entryDx=0;entryDy=0;" parent="1" source="FZoFbabwsnSWecllxkjN-66" edge="1">
          <mxGeometry relative="1" as="geometry">
            <Array as="points">
              <mxPoint x="190" y="1420" />
              <mxPoint x="190" y="1363" />
            </Array>
            <mxPoint x="240" y="1363.0000000000002" as="targetPoint" />
          </mxGeometry>
        </mxCell>
        <mxCell id="FZoFbabwsnSWecllxkjN-94" style="edgeStyle=orthogonalEdgeStyle;rounded=0;orthogonalLoop=1;jettySize=auto;html=1;exitX=1;exitY=0.5;exitDx=0;exitDy=0;entryX=0;entryY=0;entryDx=0;entryDy=0;" parent="1" source="FZoFbabwsnSWecllxkjN-66" target="FZoFbabwsnSWecllxkjN-96" edge="1">
          <mxGeometry relative="1" as="geometry">
            <mxPoint x="510" y="1540" as="targetPoint" />
            <Array as="points">
              <mxPoint x="190" y="1420" />
              <mxPoint x="190" y="1516" />
            </Array>
          </mxGeometry>
        </mxCell>
        <mxCell id="FZoFbabwsnSWecllxkjN-66" value="Time Stamp" style="rounded=1;whiteSpace=wrap;html=1;fillColor=#f8cecc;strokeColor=#b85450;" parent="1" vertex="1">
          <mxGeometry x="40" y="1410" width="120" height="20" as="geometry" />
        </mxCell>
        <mxCell id="FZoFbabwsnSWecllxkjN-67" value="Packet Length" style="rounded=1;whiteSpace=wrap;html=1;fillColor=#f8cecc;strokeColor=#b85450;" parent="1" vertex="1">
          <mxGeometry x="40" y="1390" width="120" height="20" as="geometry" />
        </mxCell>
        <mxCell id="FZoFbabwsnSWecllxkjN-68" value="Received Frame" style="text;html=1;align=center;verticalAlign=middle;whiteSpace=wrap;rounded=0;" parent="1" vertex="1">
          <mxGeometry x="40" y="1360" width="120" height="30" as="geometry" />
        </mxCell>
        <mxCell id="FZoFbabwsnSWecllxkjN-79" style="edgeStyle=orthogonalEdgeStyle;rounded=0;orthogonalLoop=1;jettySize=auto;html=1;exitX=1;exitY=0.5;exitDx=0;exitDy=0;entryX=0;entryY=0;entryDx=0;entryDy=0;" parent="1" source="FZoFbabwsnSWecllxkjN-69" edge="1">
          <mxGeometry relative="1" as="geometry">
            <mxPoint x="240" y="1343.0000000000002" as="targetPoint" />
            <Array as="points">
              <mxPoint x="161" y="1330" />
              <mxPoint x="220" y="1330" />
              <mxPoint x="220" y="1343" />
            </Array>
          </mxGeometry>
        </mxCell>
        <mxCell id="FZoFbabwsnSWecllxkjN-69" value="Channel Key (GS)" style="rounded=1;whiteSpace=wrap;html=1;fillColor=#d5e8d4;strokeColor=#82b366;" parent="1" vertex="1">
          <mxGeometry x="41.43" y="1319" width="120" height="20" as="geometry" />
        </mxCell>
        <mxCell id="FZoFbabwsnSWecllxkjN-70" value="Channel Num" style="rounded=1;whiteSpace=wrap;html=1;fillColor=#f8cecc;strokeColor=#b85450;" parent="1" vertex="1">
          <mxGeometry x="639.1" y="1060" width="120" height="20" as="geometry" />
        </mxCell>
        <mxCell id="FZoFbabwsnSWecllxkjN-81" style="edgeStyle=orthogonalEdgeStyle;rounded=0;orthogonalLoop=1;jettySize=auto;html=1;exitX=1;exitY=0.5;exitDx=0;exitDy=0;entryX=0;entryY=0.75;entryDx=0;entryDy=0;" parent="1" source="FZoFbabwsnSWecllxkjN-71" edge="1">
          <mxGeometry relative="1" as="geometry">
            <mxPoint x="240" y="1373.0000000000002" as="targetPoint" />
            <Array as="points">
              <mxPoint x="210" y="1440" />
              <mxPoint x="210" y="1373" />
            </Array>
          </mxGeometry>
        </mxCell>
        <mxCell id="FZoFbabwsnSWecllxkjN-95" style="edgeStyle=orthogonalEdgeStyle;rounded=0;orthogonalLoop=1;jettySize=auto;html=1;exitX=1;exitY=0.5;exitDx=0;exitDy=0;entryX=0;entryY=0.25;entryDx=0;entryDy=0;" parent="1" source="FZoFbabwsnSWecllxkjN-71" target="FZoFbabwsnSWecllxkjN-96" edge="1">
          <mxGeometry relative="1" as="geometry">
            <mxPoint x="510" y="1550" as="targetPoint" />
            <Array as="points">
              <mxPoint x="180" y="1440" />
              <mxPoint x="180" y="1526" />
            </Array>
          </mxGeometry>
        </mxCell>
        <mxCell id="FZoFbabwsnSWecllxkjN-71" value="Channel Num" style="rounded=1;whiteSpace=wrap;html=1;fillColor=#f8cecc;strokeColor=#b85450;" parent="1" vertex="1">
          <mxGeometry x="40" y="1430" width="120" height="20" as="geometry" />
        </mxCell>
        <mxCell id="FZoFbabwsnSWecllxkjN-85" style="edgeStyle=orthogonalEdgeStyle;rounded=0;orthogonalLoop=1;jettySize=auto;html=1;exitX=1;exitY=0.5;exitDx=0;exitDy=0;entryX=0;entryY=0.25;entryDx=0;entryDy=0;" parent="1" source="FZoFbabwsnSWecllxkjN-72" target="FZoFbabwsnSWecllxkjN-83" edge="1">
          <mxGeometry relative="1" as="geometry" />
        </mxCell>
        <mxCell id="FZoFbabwsnSWecllxkjN-92" style="edgeStyle=orthogonalEdgeStyle;rounded=0;orthogonalLoop=1;jettySize=auto;html=1;exitX=1;exitY=0.5;exitDx=0;exitDy=0;entryX=0.5;entryY=0;entryDx=0;entryDy=0;" parent="1" source="FZoFbabwsnSWecllxkjN-72" target="FZoFbabwsnSWecllxkjN-96" edge="1">
          <mxGeometry relative="1" as="geometry">
            <mxPoint x="510" y="1520" as="targetPoint" />
            <Array as="points">
              <mxPoint x="480" y="1363" />
              <mxPoint x="480" y="1500" />
              <mxPoint x="545" y="1500" />
            </Array>
          </mxGeometry>
        </mxCell>
        <mxCell id="FZoFbabwsnSWecllxkjN-72" value="Frame Secret Key" style="rounded=1;whiteSpace=wrap;html=1;fillColor=#e1d5e7;strokeColor=#9673a6;" parent="1" vertex="1">
          <mxGeometry x="350" y="1353" width="120" height="20" as="geometry" />
        </mxCell>
        <mxCell id="FZoFbabwsnSWecllxkjN-74" style="edgeStyle=orthogonalEdgeStyle;rounded=0;orthogonalLoop=1;jettySize=auto;html=1;exitX=1;exitY=0.5;exitDx=0;exitDy=0;entryX=0;entryY=0.5;entryDx=0;entryDy=0;" parent="1" target="FZoFbabwsnSWecllxkjN-72" edge="1">
          <mxGeometry relative="1" as="geometry">
            <mxPoint x="310" y="1363.0000000000002" as="sourcePoint" />
          </mxGeometry>
        </mxCell>
        <mxCell id="FZoFbabwsnSWecllxkjN-88" style="edgeStyle=orthogonalEdgeStyle;rounded=0;orthogonalLoop=1;jettySize=auto;html=1;exitX=1;exitY=0.5;exitDx=0;exitDy=0;" parent="1" source="FZoFbabwsnSWecllxkjN-83" target="FZoFbabwsnSWecllxkjN-87" edge="1">
          <mxGeometry relative="1" as="geometry" />
        </mxCell>
        <mxCell id="FZoFbabwsnSWecllxkjN-83" value="AES" style="rounded=0;whiteSpace=wrap;html=1;fillColor=#f5f5f5;fontColor=#333333;strokeColor=#666666;" parent="1" vertex="1">
          <mxGeometry x="510" y="1390" width="70" height="40" as="geometry" />
        </mxCell>
        <mxCell id="FZoFbabwsnSWecllxkjN-84" value="Decrypt Data" style="text;html=1;align=center;verticalAlign=middle;whiteSpace=wrap;rounded=0;" parent="1" vertex="1">
          <mxGeometry x="510" y="1360" width="70" height="30" as="geometry" />
        </mxCell>
        <mxCell id="FZoFbabwsnSWecllxkjN-115" style="edgeStyle=orthogonalEdgeStyle;rounded=0;orthogonalLoop=1;jettySize=auto;html=1;exitX=1;exitY=0.5;exitDx=0;exitDy=0;entryX=1;entryY=0.5;entryDx=0;entryDy=0;" parent="1" source="FZoFbabwsnSWecllxkjN-87" target="FZoFbabwsnSWecllxkjN-114" edge="1">
          <mxGeometry relative="1" as="geometry" />
        </mxCell>
        <mxCell id="FZoFbabwsnSWecllxkjN-87" value="Frame Data???" style="rounded=1;whiteSpace=wrap;html=1;fillColor=#dae8fc;strokeColor=#6c8ebf;" parent="1" vertex="1">
          <mxGeometry x="610" y="1400" width="120" height="20" as="geometry" />
        </mxCell>
        <mxCell id="FZoFbabwsnSWecllxkjN-98" style="edgeStyle=orthogonalEdgeStyle;rounded=0;orthogonalLoop=1;jettySize=auto;html=1;exitX=1;exitY=0.5;exitDx=0;exitDy=0;entryX=0;entryY=0.75;entryDx=0;entryDy=0;" parent="1" source="FZoFbabwsnSWecllxkjN-96" target="FZoFbabwsnSWecllxkjN-101" edge="1">
          <mxGeometry relative="1" as="geometry">
            <mxPoint x="599.9999999999998" y="1535.896551724138" as="targetPoint" />
          </mxGeometry>
        </mxCell>
        <mxCell id="FZoFbabwsnSWecllxkjN-96" value="AES CMAC" style="rounded=0;whiteSpace=wrap;html=1;fillColor=#f5f5f5;fontColor=#333333;strokeColor=#666666;" parent="1" vertex="1">
          <mxGeometry x="510" y="1516" width="70" height="40" as="geometry" />
        </mxCell>
        <mxCell id="FZoFbabwsnSWecllxkjN-97" value="Verify Data (Packet)" style="text;html=1;align=center;verticalAlign=middle;whiteSpace=wrap;rounded=0;" parent="1" vertex="1">
          <mxGeometry x="510" y="1460" width="70" height="40" as="geometry" />
        </mxCell>
        <mxCell id="FZoFbabwsnSWecllxkjN-105" style="edgeStyle=orthogonalEdgeStyle;rounded=0;orthogonalLoop=1;jettySize=auto;html=1;exitX=0.5;exitY=1;exitDx=0;exitDy=0;entryX=0.5;entryY=0;entryDx=0;entryDy=0;" parent="1" source="FZoFbabwsnSWecllxkjN-101" target="FZoFbabwsnSWecllxkjN-104" edge="1">
          <mxGeometry relative="1" as="geometry" />
        </mxCell>
        <mxCell id="FZoFbabwsnSWecllxkjN-101" value="Verify Signature" style="rounded=0;whiteSpace=wrap;html=1;fillColor=#f5f5f5;fontColor=#333333;strokeColor=#666666;" parent="1" vertex="1">
          <mxGeometry x="661" y="1506" width="70" height="40" as="geometry" />
        </mxCell>
        <mxCell id="FZoFbabwsnSWecllxkjN-107" style="edgeStyle=orthogonalEdgeStyle;rounded=0;orthogonalLoop=1;jettySize=auto;html=1;exitX=0;exitY=0.5;exitDx=0;exitDy=0;" parent="1" source="FZoFbabwsnSWecllxkjN-104" edge="1">
          <mxGeometry relative="1" as="geometry">
            <mxPoint x="620" y="1620" as="targetPoint" />
          </mxGeometry>
        </mxCell>
        <mxCell id="FZoFbabwsnSWecllxkjN-112" style="edgeStyle=orthogonalEdgeStyle;rounded=0;orthogonalLoop=1;jettySize=auto;html=1;exitX=0.5;exitY=1;exitDx=0;exitDy=0;" parent="1" source="FZoFbabwsnSWecllxkjN-104" edge="1">
          <mxGeometry relative="1" as="geometry">
            <mxPoint x="695.8275862068965" y="1710" as="targetPoint" />
          </mxGeometry>
        </mxCell>
        <mxCell id="FZoFbabwsnSWecllxkjN-104" value="Signature Valid?" style="rhombus;whiteSpace=wrap;html=1;" parent="1" vertex="1">
          <mxGeometry x="656" y="1580" width="80" height="80" as="geometry" />
        </mxCell>
        <mxCell id="FZoFbabwsnSWecllxkjN-106" value="No" style="text;html=1;align=center;verticalAlign=middle;whiteSpace=wrap;rounded=0;" parent="1" vertex="1">
          <mxGeometry x="630" y="1600" width="40" height="20" as="geometry" />
        </mxCell>
        <mxCell id="FZoFbabwsnSWecllxkjN-109" value="Discard Packet" style="text;html=1;align=center;verticalAlign=middle;whiteSpace=wrap;rounded=0;" parent="1" vertex="1">
          <mxGeometry x="521" y="1610" width="100" height="20" as="geometry" />
        </mxCell>
        <mxCell id="FZoFbabwsnSWecllxkjN-111" value="Yes" style="text;html=1;align=center;verticalAlign=middle;whiteSpace=wrap;rounded=0;" parent="1" vertex="1">
          <mxGeometry x="656" y="1660" width="40.9" height="20" as="geometry" />
        </mxCell>
        <mxCell id="FZoFbabwsnSWecllxkjN-114" value="Good Frame Data :)" style="rounded=1;whiteSpace=wrap;html=1;fillColor=#ffe6cc;strokeColor=#d79b00;" parent="1" vertex="1">
          <mxGeometry x="636" y="1840" width="120" height="20" as="geometry" />
        </mxCell>
        <mxCell id="FZoFbabwsnSWecllxkjN-117" value="&lt;div&gt;Assumptions:&lt;/div&gt;&lt;div&gt;&lt;ul&gt;&lt;li&gt;Only good devices have global secrets&lt;/li&gt;&lt;ul&gt;&lt;li&gt;Security must be based on global secrets!!&lt;/li&gt;&lt;/ul&gt;&lt;/ul&gt;&lt;/div&gt;&lt;div&gt;&lt;br&gt;&lt;/div&gt;We Know:&lt;div&gt;&lt;ul&gt;&lt;li&gt;&lt;span style=&quot;background-color: transparent; color: light-dark(rgb(0, 0, 0), rgb(255, 255, 255));&quot;&gt;Not a fake packet&lt;/span&gt;&lt;/li&gt;&lt;ul&gt;&lt;li&gt;KDF with global secrets &amp;amp; MIC checked&lt;/li&gt;&lt;ul&gt;&lt;li&gt;&lt;font style=&quot;color: rgb(255, 0, 0);&quot;&gt;Pesky Neighbor&lt;/font&gt;&lt;/li&gt;&lt;/ul&gt;&lt;/ul&gt;&lt;li&gt;Attacker can&#39;t decode frame data&lt;/li&gt;&lt;ul&gt;&lt;li&gt;KDF with global secrets&lt;/li&gt;&lt;ul&gt;&lt;li&gt;&lt;font style=&quot;color: rgb(255, 0, 0);&quot;&gt;Expired Subscription&lt;/font&gt;&lt;/li&gt;&lt;li&gt;&lt;font style=&quot;color: rgb(255, 0, 0);&quot;&gt;Pirated Subscription&lt;/font&gt;&lt;/li&gt;&lt;li&gt;&lt;font style=&quot;color: rgb(255, 0, 0);&quot;&gt;No Subscription&lt;/font&gt;&lt;/li&gt;&lt;li&gt;&lt;font style=&quot;color: rgb(255, 0, 0);&quot;&gt;Recording Playback&lt;/font&gt;&lt;/li&gt;&lt;/ul&gt;&lt;/ul&gt;&lt;li&gt;Not a replayed packet&lt;/li&gt;&lt;ul&gt;&lt;li&gt;Time stamp checked&lt;/li&gt;&lt;/ul&gt;&lt;li&gt;Unencrypted time stamps, channel num are good&lt;/li&gt;&lt;ul&gt;&lt;li&gt;Part of the MIC&lt;/li&gt;&lt;/ul&gt;&lt;/ul&gt;&lt;div&gt;&lt;br&gt;&lt;/div&gt;&lt;/div&gt;&lt;div&gt;&lt;br&gt;&lt;/div&gt;" style="text;html=1;align=left;verticalAlign=top;whiteSpace=wrap;rounded=0;" parent="1" vertex="1">
          <mxGeometry x="36" y="3080" width="382.5" height="310" as="geometry" />
        </mxCell>
        <mxCell id="ThvzjcIZfhXhCROZsa4s-1" style="edgeStyle=orthogonalEdgeStyle;rounded=0;orthogonalLoop=1;jettySize=auto;html=1;exitX=0.5;exitY=1;exitDx=0;exitDy=0;" parent="1" source="FZoFbabwsnSWecllxkjN-118" target="FZoFbabwsnSWecllxkjN-114" edge="1">
          <mxGeometry relative="1" as="geometry">
            <mxPoint x="696" y="1841.26" as="sourcePoint" />
          </mxGeometry>
        </mxCell>
        <mxCell id="FZoFbabwsnSWecllxkjN-118" value="Time Stamp Increased??" style="rhombus;whiteSpace=wrap;html=1;" parent="1" vertex="1">
          <mxGeometry x="646" y="1710" width="100" height="100" as="geometry" />
        </mxCell>
        <mxCell id="FZoFbabwsnSWecllxkjN-123" style="edgeStyle=orthogonalEdgeStyle;rounded=0;orthogonalLoop=1;jettySize=auto;html=1;exitX=0.75;exitY=1;exitDx=0;exitDy=0;" parent="1" source="FZoFbabwsnSWecllxkjN-125" edge="1">
          <mxGeometry relative="1" as="geometry">
            <mxPoint x="606" y="1760" as="targetPoint" />
            <mxPoint x="642" y="1760" as="sourcePoint" />
            <Array as="points">
              <mxPoint x="616" y="1760" />
              <mxPoint x="616" y="1760" />
            </Array>
          </mxGeometry>
        </mxCell>
        <mxCell id="FZoFbabwsnSWecllxkjN-124" value="Discard Packet" style="text;html=1;align=center;verticalAlign=middle;whiteSpace=wrap;rounded=0;" parent="1" vertex="1">
          <mxGeometry x="507" y="1750" width="100" height="20" as="geometry" />
        </mxCell>
        <mxCell id="FZoFbabwsnSWecllxkjN-125" value="No" style="text;html=1;align=center;verticalAlign=middle;whiteSpace=wrap;rounded=0;" parent="1" vertex="1">
          <mxGeometry x="616" y="1740" width="40" height="20" as="geometry" />
        </mxCell>
        <mxCell id="FZoFbabwsnSWecllxkjN-126" value="&lt;font style=&quot;font-size: 16px;&quot;&gt;Subscripti&lt;/font&gt;&lt;span style=&quot;font-size: 16px; background-color: transparent; color: light-dark(rgb(0, 0, 0), rgb(255, 255, 255));&quot;&gt;on Update Encode&lt;/span&gt;" style="text;html=1;align=left;verticalAlign=middle;whiteSpace=wrap;rounded=0;" parent="1" vertex="1">
          <mxGeometry x="36" y="1870" width="260" height="30" as="geometry" />
        </mxCell>
        <mxCell id="rqgm11eLHVLoC_PbrVzL-1" value="&lt;span style=&quot;font-size: 16px;&quot;&gt;Root Source of Trust?!?!&lt;/span&gt;" style="text;html=1;align=left;verticalAlign=middle;whiteSpace=wrap;rounded=0;" parent="1" vertex="1">
          <mxGeometry x="36" y="2960" width="340" height="30" as="geometry" />
        </mxCell>
        <mxCell id="_PfdmNzppAyqhTIvQ9N5-1" value="&lt;ul style=&quot;forced-color-adjust: none; color: rgb(0, 0, 0); font-family: Helvetica; font-size: 12px; font-style: normal; font-variant-ligatures: normal; font-variant-caps: normal; font-weight: 400; letter-spacing: normal; orphans: 2; text-align: left; text-indent: 0px; text-transform: none; widows: 2; word-spacing: 0px; -webkit-text-stroke-width: 0px; white-space: normal; text-decoration-thickness: initial; text-decoration-style: initial; text-decoration-color: initial;&quot;&gt;&lt;li style=&quot;forced-color-adjust: none;&quot;&gt;&lt;span&gt;Only good devices have global secrets&lt;/span&gt;&lt;/li&gt;&lt;ul style=&quot;forced-color-adjust: none;&quot;&gt;&lt;li style=&quot;forced-color-adjust: none;&quot;&gt;&lt;span&gt;Security must be based on global secrets!!&lt;/span&gt;&lt;/li&gt;&lt;/ul&gt;&lt;/ul&gt;" style="text;whiteSpace=wrap;html=1;" parent="1" vertex="1">
          <mxGeometry x="36" y="2978" width="340" height="80" as="geometry" />
        </mxCell>
        <mxCell id="_PfdmNzppAyqhTIvQ9N5-11" value="Channel Key (GS)" style="rounded=1;whiteSpace=wrap;html=1;fillColor=#d5e8d4;strokeColor=#82b366;" parent="1" vertex="1">
          <mxGeometry x="41.43" y="790" width="120" height="20" as="geometry" />
        </mxCell>
        <mxCell id="_PfdmNzppAyqhTIvQ9N5-12" style="edgeStyle=orthogonalEdgeStyle;rounded=0;orthogonalLoop=1;jettySize=auto;html=1;exitX=1;exitY=0.5;exitDx=0;exitDy=0;entryX=0;entryY=0.5;entryDx=0;entryDy=0;" parent="1" source="_PfdmNzppAyqhTIvQ9N5-13" target="_PfdmNzppAyqhTIvQ9N5-15" edge="1">
          <mxGeometry relative="1" as="geometry" />
        </mxCell>
        <mxCell id="_PfdmNzppAyqhTIvQ9N5-13" value="Time Stamp" style="rounded=1;whiteSpace=wrap;html=1;fillColor=#fff2cc;strokeColor=#d6b656;" parent="1" vertex="1">
          <mxGeometry x="40" y="830" width="120" height="20" as="geometry" />
        </mxCell>
        <mxCell id="_PfdmNzppAyqhTIvQ9N5-14" style="edgeStyle=orthogonalEdgeStyle;rounded=0;orthogonalLoop=1;jettySize=auto;html=1;exitX=1;exitY=0.5;exitDx=0;exitDy=0;entryX=0;entryY=0.5;entryDx=0;entryDy=0;" parent="1" source="_PfdmNzppAyqhTIvQ9N5-15" target="_PfdmNzppAyqhTIvQ9N5-17" edge="1">
          <mxGeometry relative="1" as="geometry">
            <mxPoint x="330" y="820" as="targetPoint" />
          </mxGeometry>
        </mxCell>
        <mxCell id="_PfdmNzppAyqhTIvQ9N5-15" value="KDF" style="rounded=0;whiteSpace=wrap;html=1;fillColor=#f5f5f5;fontColor=#333333;strokeColor=#666666;" parent="1" vertex="1">
          <mxGeometry x="220" y="820" width="70" height="40" as="geometry" />
        </mxCell>
        <mxCell id="_PfdmNzppAyqhTIvQ9N5-16" style="edgeStyle=orthogonalEdgeStyle;rounded=0;orthogonalLoop=1;jettySize=auto;html=1;exitX=1;exitY=0.5;exitDx=0;exitDy=0;entryX=0;entryY=0;entryDx=0;entryDy=0;" parent="1" source="_PfdmNzppAyqhTIvQ9N5-11" target="_PfdmNzppAyqhTIvQ9N5-15" edge="1">
          <mxGeometry relative="1" as="geometry">
            <Array as="points">
              <mxPoint x="200" y="800" />
              <mxPoint x="200" y="820" />
            </Array>
          </mxGeometry>
        </mxCell>
        <mxCell id="_PfdmNzppAyqhTIvQ9N5-17" value="Frame Secret Key" style="rounded=1;whiteSpace=wrap;html=1;fillColor=#e1d5e7;strokeColor=#9673a6;" parent="1" vertex="1">
          <mxGeometry x="330" y="830" width="150" height="20" as="geometry" />
        </mxCell>
        <mxCell id="_PfdmNzppAyqhTIvQ9N5-18" style="edgeStyle=orthogonalEdgeStyle;rounded=0;orthogonalLoop=1;jettySize=auto;html=1;exitX=1;exitY=0.5;exitDx=0;exitDy=0;entryX=0;entryY=0.75;entryDx=0;entryDy=0;" parent="1" source="_PfdmNzppAyqhTIvQ9N5-19" target="_PfdmNzppAyqhTIvQ9N5-15" edge="1">
          <mxGeometry relative="1" as="geometry" />
        </mxCell>
        <mxCell id="_PfdmNzppAyqhTIvQ9N5-19" value="Channel Num" style="rounded=1;whiteSpace=wrap;html=1;fillColor=#f8cecc;strokeColor=#b85450;" parent="1" vertex="1">
          <mxGeometry x="40" y="865" width="120" height="20" as="geometry" />
        </mxCell>
        <mxCell id="_PfdmNzppAyqhTIvQ9N5-28" value="KDF" style="rounded=0;whiteSpace=wrap;html=1;fillColor=#f5f5f5;fontColor=#333333;strokeColor=#666666;" parent="1" vertex="1">
          <mxGeometry x="220" y="1035" width="70" height="40" as="geometry" />
        </mxCell>
        <mxCell id="_PfdmNzppAyqhTIvQ9N5-32" value="KDF" style="rounded=0;whiteSpace=wrap;html=1;fillColor=#f5f5f5;fontColor=#333333;strokeColor=#666666;" parent="1" vertex="1">
          <mxGeometry x="240" y="1339" width="70" height="40" as="geometry" />
        </mxCell>
        <mxCell id="_PfdmNzppAyqhTIvQ9N5-33" value="&lt;font style=&quot;font-size: 16px;&quot;&gt;Subscripti&lt;/font&gt;&lt;span style=&quot;font-size: 16px; background-color: transparent; color: light-dark(rgb(0, 0, 0), rgb(255, 255, 255));&quot;&gt;on Update Decode&lt;/span&gt;" style="text;html=1;align=left;verticalAlign=middle;whiteSpace=wrap;rounded=0;" parent="1" vertex="1">
          <mxGeometry x="38.57" y="2280" width="260" height="30" as="geometry" />
        </mxCell>
        <mxCell id="_PfdmNzppAyqhTIvQ9N5-67" value="Channel Key (GS)" style="rounded=1;whiteSpace=wrap;html=1;fillColor=#d5e8d4;strokeColor=#82b366;" parent="1" vertex="1">
          <mxGeometry x="41.43" y="1950" width="120" height="20" as="geometry" />
        </mxCell>
        <mxCell id="_PfdmNzppAyqhTIvQ9N5-68" style="edgeStyle=orthogonalEdgeStyle;rounded=0;orthogonalLoop=1;jettySize=auto;html=1;exitX=1;exitY=0.5;exitDx=0;exitDy=0;entryX=0;entryY=0.5;entryDx=0;entryDy=0;" parent="1" source="_PfdmNzppAyqhTIvQ9N5-69" target="_PfdmNzppAyqhTIvQ9N5-71" edge="1">
          <mxGeometry relative="1" as="geometry" />
        </mxCell>
        <mxCell id="_PfdmNzppAyqhTIvQ9N5-90" style="edgeStyle=orthogonalEdgeStyle;rounded=0;orthogonalLoop=1;jettySize=auto;html=1;exitX=1;exitY=0.5;exitDx=0;exitDy=0;entryX=-0.016;entryY=0.141;entryDx=0;entryDy=0;entryPerimeter=0;" parent="1" source="_PfdmNzppAyqhTIvQ9N5-69" target="_PfdmNzppAyqhTIvQ9N5-86" edge="1">
          <mxGeometry relative="1" as="geometry">
            <Array as="points">
              <mxPoint x="210" y="2018" />
              <mxPoint x="210" y="2093" />
            </Array>
          </mxGeometry>
        </mxCell>
        <mxCell id="_PfdmNzppAyqhTIvQ9N5-69" value="Time Stamp Start" style="rounded=1;whiteSpace=wrap;html=1;fillColor=#fff2cc;strokeColor=#d6b656;" parent="1" vertex="1">
          <mxGeometry x="40" y="2007.5" width="120" height="20" as="geometry" />
        </mxCell>
        <mxCell id="_PfdmNzppAyqhTIvQ9N5-70" style="edgeStyle=orthogonalEdgeStyle;rounded=0;orthogonalLoop=1;jettySize=auto;html=1;exitX=1;exitY=0.5;exitDx=0;exitDy=0;entryX=0;entryY=0.5;entryDx=0;entryDy=0;" parent="1" source="_PfdmNzppAyqhTIvQ9N5-71" target="_PfdmNzppAyqhTIvQ9N5-73" edge="1">
          <mxGeometry relative="1" as="geometry">
            <mxPoint x="330" y="1997.5" as="targetPoint" />
          </mxGeometry>
        </mxCell>
        <mxCell id="_PfdmNzppAyqhTIvQ9N5-71" value="KDF" style="rounded=0;whiteSpace=wrap;html=1;fillColor=#f5f5f5;fontColor=#333333;strokeColor=#666666;" parent="1" vertex="1">
          <mxGeometry x="230" y="1997.5" width="70" height="40" as="geometry" />
        </mxCell>
        <mxCell id="_PfdmNzppAyqhTIvQ9N5-72" style="edgeStyle=orthogonalEdgeStyle;rounded=0;orthogonalLoop=1;jettySize=auto;html=1;exitX=1;exitY=0.5;exitDx=0;exitDy=0;entryX=0;entryY=0;entryDx=0;entryDy=0;" parent="1" source="_PfdmNzppAyqhTIvQ9N5-67" target="_PfdmNzppAyqhTIvQ9N5-71" edge="1">
          <mxGeometry relative="1" as="geometry">
            <Array as="points">
              <mxPoint x="190" y="1960" />
              <mxPoint x="190" y="1998" />
            </Array>
          </mxGeometry>
        </mxCell>
        <mxCell id="_PfdmNzppAyqhTIvQ9N5-99" style="edgeStyle=orthogonalEdgeStyle;rounded=0;orthogonalLoop=1;jettySize=auto;html=1;exitX=1;exitY=0.5;exitDx=0;exitDy=0;entryX=0.5;entryY=0;entryDx=0;entryDy=0;" parent="1" source="_PfdmNzppAyqhTIvQ9N5-73" target="_PfdmNzppAyqhTIvQ9N5-86" edge="1">
          <mxGeometry relative="1" as="geometry">
            <Array as="points">
              <mxPoint x="490" y="2018" />
              <mxPoint x="490" y="2070" />
              <mxPoint x="542" y="2070" />
            </Array>
          </mxGeometry>
        </mxCell>
        <mxCell id="_PfdmNzppAyqhTIvQ9N5-73" value="Subscription Secret Key" style="rounded=1;whiteSpace=wrap;html=1;fillColor=#e1d5e7;strokeColor=#9673a6;" parent="1" vertex="1">
          <mxGeometry x="330" y="2007.5" width="150" height="20" as="geometry" />
        </mxCell>
        <mxCell id="_PfdmNzppAyqhTIvQ9N5-74" style="edgeStyle=orthogonalEdgeStyle;rounded=0;orthogonalLoop=1;jettySize=auto;html=1;exitX=1;exitY=0.5;exitDx=0;exitDy=0;entryX=-0.004;entryY=0.932;entryDx=0;entryDy=0;entryPerimeter=0;" parent="1" source="_PfdmNzppAyqhTIvQ9N5-75" target="_PfdmNzppAyqhTIvQ9N5-71" edge="1">
          <mxGeometry relative="1" as="geometry">
            <Array as="points">
              <mxPoint x="190" y="2078" />
              <mxPoint x="190" y="2035" />
              <mxPoint x="230" y="2035" />
            </Array>
          </mxGeometry>
        </mxCell>
        <mxCell id="_PfdmNzppAyqhTIvQ9N5-91" style="edgeStyle=orthogonalEdgeStyle;rounded=0;orthogonalLoop=1;jettySize=auto;html=1;exitX=1;exitY=0.5;exitDx=0;exitDy=0;entryX=-0.014;entryY=0.594;entryDx=0;entryDy=0;entryPerimeter=0;" parent="1" source="_PfdmNzppAyqhTIvQ9N5-75" target="_PfdmNzppAyqhTIvQ9N5-86" edge="1">
          <mxGeometry relative="1" as="geometry">
            <Array as="points">
              <mxPoint x="190" y="2093" />
              <mxPoint x="190" y="2111" />
              <mxPoint x="507" y="2111" />
            </Array>
          </mxGeometry>
        </mxCell>
        <mxCell id="_PfdmNzppAyqhTIvQ9N5-75" value="Channel Num" style="rounded=1;whiteSpace=wrap;html=1;fillColor=#f8cecc;strokeColor=#b85450;" parent="1" vertex="1">
          <mxGeometry x="40" y="2067.5" width="120" height="20" as="geometry" />
        </mxCell>
        <mxCell id="_PfdmNzppAyqhTIvQ9N5-80" value="MIC" style="rounded=1;whiteSpace=wrap;html=1;fillColor=#f8cecc;strokeColor=#b85450;" parent="1" vertex="1">
          <mxGeometry x="646" y="2095" width="120" height="20" as="geometry" />
        </mxCell>
        <mxCell id="_PfdmNzppAyqhTIvQ9N5-81" value="Time Stamp Start" style="rounded=1;whiteSpace=wrap;html=1;fillColor=#f8cecc;strokeColor=#b85450;" parent="1" vertex="1">
          <mxGeometry x="646" y="2035" width="120" height="20" as="geometry" />
        </mxCell>
        <mxCell id="_PfdmNzppAyqhTIvQ9N5-82" value="Transmitted Frame" style="text;html=1;align=center;verticalAlign=middle;whiteSpace=wrap;rounded=0;" parent="1" vertex="1">
          <mxGeometry x="646" y="1990" width="120" height="30" as="geometry" />
        </mxCell>
        <mxCell id="_PfdmNzppAyqhTIvQ9N5-83" value="Packet Length" style="rounded=1;whiteSpace=wrap;html=1;fillColor=#f8cecc;strokeColor=#b85450;" parent="1" vertex="1">
          <mxGeometry x="646" y="2015" width="120" height="20" as="geometry" />
        </mxCell>
        <mxCell id="_PfdmNzppAyqhTIvQ9N5-84" value="Channel Num" style="rounded=1;whiteSpace=wrap;html=1;fillColor=#f8cecc;strokeColor=#b85450;" parent="1" vertex="1">
          <mxGeometry x="646" y="2075" width="120" height="20" as="geometry" />
        </mxCell>
        <mxCell id="_PfdmNzppAyqhTIvQ9N5-89" style="edgeStyle=orthogonalEdgeStyle;rounded=0;orthogonalLoop=1;jettySize=auto;html=1;exitX=1;exitY=0.5;exitDx=0;exitDy=0;entryX=0;entryY=0.62;entryDx=0;entryDy=0;entryPerimeter=0;" parent="1" source="_PfdmNzppAyqhTIvQ9N5-86" target="_PfdmNzppAyqhTIvQ9N5-80" edge="1">
          <mxGeometry relative="1" as="geometry">
            <Array as="points">
              <mxPoint x="620" y="2107" />
            </Array>
            <mxPoint x="577" y="2140.01" as="sourcePoint" />
            <mxPoint x="646" y="2105.01" as="targetPoint" />
          </mxGeometry>
        </mxCell>
        <mxCell id="_PfdmNzppAyqhTIvQ9N5-86" value="AES CMAC" style="rounded=0;whiteSpace=wrap;html=1;fillColor=#f5f5f5;fontColor=#333333;strokeColor=#666666;" parent="1" vertex="1">
          <mxGeometry x="507" y="2087.5" width="70" height="40" as="geometry" />
        </mxCell>
        <mxCell id="_PfdmNzppAyqhTIvQ9N5-92" value="Packet Length" style="rounded=1;whiteSpace=wrap;html=1;fillColor=#f8cecc;strokeColor=#b85450;" parent="1" vertex="1">
          <mxGeometry x="40" y="1120" width="120" height="20" as="geometry" />
        </mxCell>
        <mxCell id="_PfdmNzppAyqhTIvQ9N5-93" style="edgeStyle=orthogonalEdgeStyle;rounded=0;orthogonalLoop=1;jettySize=auto;html=1;exitX=1;exitY=0.5;exitDx=0;exitDy=0;entryX=0;entryY=0.75;entryDx=0;entryDy=0;" parent="1" source="_PfdmNzppAyqhTIvQ9N5-92" target="FZoFbabwsnSWecllxkjN-51" edge="1">
          <mxGeometry relative="1" as="geometry">
            <Array as="points">
              <mxPoint x="170" y="1130" />
              <mxPoint x="170" y="1195" />
            </Array>
          </mxGeometry>
        </mxCell>
        <mxCell id="_PfdmNzppAyqhTIvQ9N5-95" style="edgeStyle=orthogonalEdgeStyle;rounded=0;orthogonalLoop=1;jettySize=auto;html=1;exitX=1;exitY=0.5;exitDx=0;exitDy=0;entryX=0;entryY=0.5;entryDx=0;entryDy=0;" parent="1" source="FZoFbabwsnSWecllxkjN-67" target="FZoFbabwsnSWecllxkjN-96" edge="1">
          <mxGeometry relative="1" as="geometry">
            <Array as="points">
              <mxPoint x="170" y="1400" />
              <mxPoint x="170" y="1536" />
            </Array>
          </mxGeometry>
        </mxCell>
        <mxCell id="_PfdmNzppAyqhTIvQ9N5-97" style="edgeStyle=orthogonalEdgeStyle;rounded=0;orthogonalLoop=1;jettySize=auto;html=1;exitX=1;exitY=0.5;exitDx=0;exitDy=0;entryX=0.001;entryY=0.846;entryDx=0;entryDy=0;entryPerimeter=0;" parent="1" source="_PfdmNzppAyqhTIvQ9N5-96" target="_PfdmNzppAyqhTIvQ9N5-86" edge="1">
          <mxGeometry relative="1" as="geometry">
            <Array as="points">
              <mxPoint x="180" y="2105" />
              <mxPoint x="180" y="2121" />
              <mxPoint x="190" y="2121" />
            </Array>
          </mxGeometry>
        </mxCell>
        <mxCell id="_PfdmNzppAyqhTIvQ9N5-96" value="Packet Length" style="rounded=1;whiteSpace=wrap;html=1;fillColor=#f8cecc;strokeColor=#b85450;" parent="1" vertex="1">
          <mxGeometry x="40" y="2095" width="120" height="20" as="geometry" />
        </mxCell>
        <mxCell id="_PfdmNzppAyqhTIvQ9N5-143" style="edgeStyle=orthogonalEdgeStyle;rounded=0;orthogonalLoop=1;jettySize=auto;html=1;exitX=1;exitY=0.5;exitDx=0;exitDy=0;entryX=0;entryY=0.75;entryDx=0;entryDy=0;" parent="1" source="_PfdmNzppAyqhTIvQ9N5-102" target="_PfdmNzppAyqhTIvQ9N5-140" edge="1">
          <mxGeometry relative="1" as="geometry">
            <Array as="points">
              <mxPoint x="610" y="2520" />
              <mxPoint x="610" y="2500" />
            </Array>
          </mxGeometry>
        </mxCell>
        <mxCell id="_PfdmNzppAyqhTIvQ9N5-102" value="MIC" style="rounded=1;whiteSpace=wrap;html=1;fillColor=#f8cecc;strokeColor=#b85450;" parent="1" vertex="1">
          <mxGeometry x="40" y="2510" width="120" height="20" as="geometry" />
        </mxCell>
        <mxCell id="_PfdmNzppAyqhTIvQ9N5-104" value="Received Frame" style="text;html=1;align=center;verticalAlign=middle;whiteSpace=wrap;rounded=0;" parent="1" vertex="1">
          <mxGeometry x="38.57" y="2400" width="120" height="30" as="geometry" />
        </mxCell>
        <mxCell id="_PfdmNzppAyqhTIvQ9N5-126" style="edgeStyle=orthogonalEdgeStyle;rounded=0;orthogonalLoop=1;jettySize=auto;html=1;exitX=1;exitY=0.5;exitDx=0;exitDy=0;entryX=0;entryY=0;entryDx=0;entryDy=0;" parent="1" source="_PfdmNzppAyqhTIvQ9N5-105" target="_PfdmNzppAyqhTIvQ9N5-117" edge="1">
          <mxGeometry relative="1" as="geometry">
            <Array as="points">
              <mxPoint x="290" y="2440" />
              <mxPoint x="290" y="2460" />
            </Array>
          </mxGeometry>
        </mxCell>
        <mxCell id="_PfdmNzppAyqhTIvQ9N5-105" value="Packet Length" style="rounded=1;whiteSpace=wrap;html=1;fillColor=#f8cecc;strokeColor=#b85450;" parent="1" vertex="1">
          <mxGeometry x="38.57" y="2430" width="120" height="20" as="geometry" />
        </mxCell>
        <mxCell id="_PfdmNzppAyqhTIvQ9N5-111" style="edgeStyle=orthogonalEdgeStyle;rounded=0;orthogonalLoop=1;jettySize=auto;html=1;exitX=1;exitY=0.5;exitDx=0;exitDy=0;entryX=0;entryY=0.653;entryDx=0;entryDy=0;entryPerimeter=0;" parent="1" source="4HZwPF48nPItm0LzL9Oo-10" target="_PfdmNzppAyqhTIvQ9N5-108" edge="1">
          <mxGeometry relative="1" as="geometry">
            <Array as="points">
              <mxPoint x="190" y="2480" />
              <mxPoint x="190" y="2416" />
              <mxPoint x="239" y="2416" />
            </Array>
          </mxGeometry>
        </mxCell>
        <mxCell id="_PfdmNzppAyqhTIvQ9N5-125" style="edgeStyle=orthogonalEdgeStyle;rounded=0;orthogonalLoop=1;jettySize=auto;html=1;exitX=1;exitY=0.5;exitDx=0;exitDy=0;entryX=0;entryY=0.75;entryDx=0;entryDy=0;" parent="1" source="_PfdmNzppAyqhTIvQ9N5-106" target="_PfdmNzppAyqhTIvQ9N5-117" edge="1">
          <mxGeometry relative="1" as="geometry">
            <Array as="points">
              <mxPoint x="260" y="2500" />
              <mxPoint x="260" y="2490" />
            </Array>
          </mxGeometry>
        </mxCell>
        <mxCell id="_PfdmNzppAyqhTIvQ9N5-106" value="Channel Num" style="rounded=1;whiteSpace=wrap;html=1;fillColor=#f8cecc;strokeColor=#b85450;" parent="1" vertex="1">
          <mxGeometry x="38.57" y="2490" width="120" height="20" as="geometry" />
        </mxCell>
        <mxCell id="_PfdmNzppAyqhTIvQ9N5-109" style="edgeStyle=orthogonalEdgeStyle;rounded=0;orthogonalLoop=1;jettySize=auto;html=1;exitX=1;exitY=0.5;exitDx=0;exitDy=0;entryX=0;entryY=0;entryDx=0;entryDy=0;" parent="1" source="_PfdmNzppAyqhTIvQ9N5-107" target="_PfdmNzppAyqhTIvQ9N5-108" edge="1">
          <mxGeometry relative="1" as="geometry">
            <Array as="points">
              <mxPoint x="200" y="2360" />
              <mxPoint x="200" y="2390" />
            </Array>
          </mxGeometry>
        </mxCell>
        <mxCell id="_PfdmNzppAyqhTIvQ9N5-107" value="Channel Key (GS)" style="rounded=1;whiteSpace=wrap;html=1;fillColor=#d5e8d4;strokeColor=#82b366;" parent="1" vertex="1">
          <mxGeometry x="40" y="2350" width="120" height="20" as="geometry" />
        </mxCell>
        <mxCell id="_PfdmNzppAyqhTIvQ9N5-113" style="edgeStyle=orthogonalEdgeStyle;rounded=0;orthogonalLoop=1;jettySize=auto;html=1;exitX=1;exitY=0.5;exitDx=0;exitDy=0;entryX=0;entryY=0.5;entryDx=0;entryDy=0;" parent="1" source="_PfdmNzppAyqhTIvQ9N5-108" target="_PfdmNzppAyqhTIvQ9N5-112" edge="1">
          <mxGeometry relative="1" as="geometry" />
        </mxCell>
        <mxCell id="_PfdmNzppAyqhTIvQ9N5-108" value="KDF" style="rounded=0;whiteSpace=wrap;html=1;fillColor=#f5f5f5;fontColor=#333333;strokeColor=#666666;" parent="1" vertex="1">
          <mxGeometry x="238.57" y="2390" width="70" height="40" as="geometry" />
        </mxCell>
        <mxCell id="_PfdmNzppAyqhTIvQ9N5-118" style="edgeStyle=orthogonalEdgeStyle;rounded=0;orthogonalLoop=1;jettySize=auto;html=1;exitX=1;exitY=0.5;exitDx=0;exitDy=0;entryX=0.5;entryY=0;entryDx=0;entryDy=0;" parent="1" source="_PfdmNzppAyqhTIvQ9N5-112" target="_PfdmNzppAyqhTIvQ9N5-117" edge="1">
          <mxGeometry relative="1" as="geometry">
            <Array as="points">
              <mxPoint x="484" y="2410" />
              <mxPoint x="484" y="2440" />
              <mxPoint x="555" y="2440" />
            </Array>
          </mxGeometry>
        </mxCell>
        <mxCell id="_PfdmNzppAyqhTIvQ9N5-112" value="Subscription Secret Key" style="rounded=1;whiteSpace=wrap;html=1;fillColor=#e1d5e7;strokeColor=#9673a6;" parent="1" vertex="1">
          <mxGeometry x="325" y="2400" width="150" height="20" as="geometry" />
        </mxCell>
        <mxCell id="_PfdmNzppAyqhTIvQ9N5-142" style="edgeStyle=orthogonalEdgeStyle;rounded=0;orthogonalLoop=1;jettySize=auto;html=1;exitX=1;exitY=0.5;exitDx=0;exitDy=0;entryX=0;entryY=0.25;entryDx=0;entryDy=0;" parent="1" source="_PfdmNzppAyqhTIvQ9N5-117" target="_PfdmNzppAyqhTIvQ9N5-140" edge="1">
          <mxGeometry relative="1" as="geometry" />
        </mxCell>
        <mxCell id="_PfdmNzppAyqhTIvQ9N5-117" value="AES CMAC" style="rounded=0;whiteSpace=wrap;html=1;fillColor=#f5f5f5;fontColor=#333333;strokeColor=#666666;" parent="1" vertex="1">
          <mxGeometry x="518" y="2460" width="74" height="40" as="geometry" />
        </mxCell>
        <mxCell id="_PfdmNzppAyqhTIvQ9N5-120" value="Verify Packet" style="text;html=1;align=center;verticalAlign=middle;whiteSpace=wrap;rounded=0;" parent="1" vertex="1">
          <mxGeometry x="520" y="2400" width="70" height="40" as="geometry" />
        </mxCell>
        <mxCell id="_PfdmNzppAyqhTIvQ9N5-128" style="edgeStyle=orthogonalEdgeStyle;rounded=0;orthogonalLoop=1;jettySize=auto;html=1;exitX=0;exitY=0.5;exitDx=0;exitDy=0;" parent="1" source="_PfdmNzppAyqhTIvQ9N5-130" edge="1">
          <mxGeometry relative="1" as="geometry">
            <mxPoint x="623.1" y="2584" as="targetPoint" />
          </mxGeometry>
        </mxCell>
        <mxCell id="_PfdmNzppAyqhTIvQ9N5-129" style="edgeStyle=orthogonalEdgeStyle;rounded=0;orthogonalLoop=1;jettySize=auto;html=1;exitX=0.5;exitY=1;exitDx=0;exitDy=0;entryX=0.5;entryY=0;entryDx=0;entryDy=0;" parent="1" source="_PfdmNzppAyqhTIvQ9N5-130" target="_PfdmNzppAyqhTIvQ9N5-134" edge="1">
          <mxGeometry relative="1" as="geometry">
            <mxPoint x="698.9275862068965" y="2674" as="targetPoint" />
          </mxGeometry>
        </mxCell>
        <mxCell id="_PfdmNzppAyqhTIvQ9N5-130" value="" style="rhombus;whiteSpace=wrap;html=1;" parent="1" vertex="1">
          <mxGeometry x="659.1" y="2544" width="80" height="80" as="geometry" />
        </mxCell>
        <mxCell id="_PfdmNzppAyqhTIvQ9N5-131" value="Bad" style="text;html=1;align=center;verticalAlign=middle;whiteSpace=wrap;rounded=0;" parent="1" vertex="1">
          <mxGeometry x="633.1" y="2564" width="40" height="20" as="geometry" />
        </mxCell>
        <mxCell id="_PfdmNzppAyqhTIvQ9N5-132" value="Discard Packet" style="text;html=1;align=center;verticalAlign=middle;whiteSpace=wrap;rounded=0;" parent="1" vertex="1">
          <mxGeometry x="530" y="2574" width="100" height="20" as="geometry" />
        </mxCell>
        <mxCell id="_PfdmNzppAyqhTIvQ9N5-133" value="Good" style="text;html=1;align=center;verticalAlign=middle;whiteSpace=wrap;rounded=0;" parent="1" vertex="1">
          <mxGeometry x="659.1" y="2624" width="40.9" height="20" as="geometry" />
        </mxCell>
        <mxCell id="_PfdmNzppAyqhTIvQ9N5-134" value="Subscription Valid :)" style="rounded=1;whiteSpace=wrap;html=1;fillColor=#ffe6cc;strokeColor=#d79b00;" parent="1" vertex="1">
          <mxGeometry x="639.1" y="2680" width="120" height="20" as="geometry" />
        </mxCell>
        <mxCell id="_PfdmNzppAyqhTIvQ9N5-144" style="edgeStyle=orthogonalEdgeStyle;rounded=0;orthogonalLoop=1;jettySize=auto;html=1;exitX=0.5;exitY=1;exitDx=0;exitDy=0;entryX=0.5;entryY=0;entryDx=0;entryDy=0;" parent="1" source="_PfdmNzppAyqhTIvQ9N5-140" target="_PfdmNzppAyqhTIvQ9N5-130" edge="1">
          <mxGeometry relative="1" as="geometry" />
        </mxCell>
        <mxCell id="_PfdmNzppAyqhTIvQ9N5-140" value="Verify Signature" style="rounded=0;whiteSpace=wrap;html=1;fillColor=#f5f5f5;fontColor=#333333;strokeColor=#666666;" parent="1" vertex="1">
          <mxGeometry x="664.1" y="2470" width="70" height="40" as="geometry" />
        </mxCell>
        <mxCell id="4HZwPF48nPItm0LzL9Oo-2" style="edgeStyle=orthogonalEdgeStyle;rounded=0;orthogonalLoop=1;jettySize=auto;html=1;exitX=0.5;exitY=1;exitDx=0;exitDy=0;entryX=0.5;entryY=0;entryDx=0;entryDy=0;" parent="1" source="4HZwPF48nPItm0LzL9Oo-1" target="_PfdmNzppAyqhTIvQ9N5-71" edge="1">
          <mxGeometry relative="1" as="geometry" />
        </mxCell>
        <mxCell id="4HZwPF48nPItm0LzL9Oo-1" value="Subscription KDF Key (GS)" style="rounded=1;whiteSpace=wrap;html=1;fillColor=#d5e8d4;strokeColor=#82b366;" parent="1" vertex="1">
          <mxGeometry x="190" y="1920" width="150" height="20" as="geometry" />
        </mxCell>
        <mxCell id="4HZwPF48nPItm0LzL9Oo-4" style="edgeStyle=orthogonalEdgeStyle;rounded=0;orthogonalLoop=1;jettySize=auto;html=1;exitX=0.5;exitY=1;exitDx=0;exitDy=0;entryX=0.5;entryY=0;entryDx=0;entryDy=0;" parent="1" source="4HZwPF48nPItm0LzL9Oo-3" target="_PfdmNzppAyqhTIvQ9N5-108" edge="1">
          <mxGeometry relative="1" as="geometry" />
        </mxCell>
        <mxCell id="4HZwPF48nPItm0LzL9Oo-3" value="Subscription KDF Key (GS)" style="rounded=1;whiteSpace=wrap;html=1;fillColor=#d5e8d4;strokeColor=#82b366;" parent="1" vertex="1">
          <mxGeometry x="200" y="2338" width="150" height="20" as="geometry" />
        </mxCell>
        <mxCell id="4HZwPF48nPItm0LzL9Oo-5" value="Time Stamp End" style="rounded=1;whiteSpace=wrap;html=1;fillColor=#f8cecc;strokeColor=#b85450;" parent="1" vertex="1">
          <mxGeometry x="646" y="2055" width="120" height="20" as="geometry" />
        </mxCell>
        <mxCell id="4HZwPF48nPItm0LzL9Oo-8" style="edgeStyle=orthogonalEdgeStyle;rounded=0;orthogonalLoop=1;jettySize=auto;html=1;exitX=1;exitY=0.5;exitDx=0;exitDy=0;entryX=-0.005;entryY=0.366;entryDx=0;entryDy=0;entryPerimeter=0;" parent="1" source="4HZwPF48nPItm0LzL9Oo-6" target="_PfdmNzppAyqhTIvQ9N5-86" edge="1">
          <mxGeometry relative="1" as="geometry">
            <Array as="points">
              <mxPoint x="200" y="2047" />
              <mxPoint x="200" y="2102" />
              <mxPoint x="507" y="2102" />
            </Array>
          </mxGeometry>
        </mxCell>
        <mxCell id="4HZwPF48nPItm0LzL9Oo-6" value="Time Stamp End" style="rounded=1;whiteSpace=wrap;html=1;fillColor=#fff2cc;strokeColor=#d6b656;" parent="1" vertex="1">
          <mxGeometry x="40" y="2037.5" width="120" height="20" as="geometry" />
        </mxCell>
        <mxCell id="4HZwPF48nPItm0LzL9Oo-7" style="edgeStyle=orthogonalEdgeStyle;rounded=0;orthogonalLoop=1;jettySize=auto;html=1;exitX=1;exitY=0.5;exitDx=0;exitDy=0;entryX=-0.001;entryY=0.711;entryDx=0;entryDy=0;entryPerimeter=0;" parent="1" source="4HZwPF48nPItm0LzL9Oo-6" target="_PfdmNzppAyqhTIvQ9N5-71" edge="1">
          <mxGeometry relative="1" as="geometry">
            <Array as="points">
              <mxPoint x="200" y="2047" />
              <mxPoint x="200" y="2026" />
            </Array>
          </mxGeometry>
        </mxCell>
        <mxCell id="4HZwPF48nPItm0LzL9Oo-13" style="edgeStyle=orthogonalEdgeStyle;rounded=0;orthogonalLoop=1;jettySize=auto;html=1;exitX=1;exitY=0.5;exitDx=0;exitDy=0;entryX=0;entryY=0.25;entryDx=0;entryDy=0;" parent="1" source="4HZwPF48nPItm0LzL9Oo-9" target="_PfdmNzppAyqhTIvQ9N5-117" edge="1">
          <mxGeometry relative="1" as="geometry">
            <Array as="points">
              <mxPoint x="280" y="2460" />
              <mxPoint x="280" y="2470" />
            </Array>
          </mxGeometry>
        </mxCell>
        <mxCell id="4HZwPF48nPItm0LzL9Oo-9" value="Time Stamp Start" style="rounded=1;whiteSpace=wrap;html=1;fillColor=#f8cecc;strokeColor=#b85450;" parent="1" vertex="1">
          <mxGeometry x="38.57" y="2450" width="120" height="20" as="geometry" />
        </mxCell>
        <mxCell id="4HZwPF48nPItm0LzL9Oo-10" value="Time Stamp End" style="rounded=1;whiteSpace=wrap;html=1;fillColor=#f8cecc;strokeColor=#b85450;" parent="1" vertex="1">
          <mxGeometry x="38.57" y="2470" width="120" height="20" as="geometry" />
        </mxCell>
        <mxCell id="4HZwPF48nPItm0LzL9Oo-11" style="edgeStyle=orthogonalEdgeStyle;rounded=0;orthogonalLoop=1;jettySize=auto;html=1;exitX=1;exitY=0.5;exitDx=0;exitDy=0;entryX=-0.011;entryY=0.427;entryDx=0;entryDy=0;entryPerimeter=0;" parent="1" source="4HZwPF48nPItm0LzL9Oo-9" target="_PfdmNzppAyqhTIvQ9N5-108" edge="1">
          <mxGeometry relative="1" as="geometry">
            <Array as="points">
              <mxPoint x="180" y="2460" />
              <mxPoint x="180" y="2407" />
            </Array>
          </mxGeometry>
        </mxCell>
        <mxCell id="4HZwPF48nPItm0LzL9Oo-12" style="edgeStyle=orthogonalEdgeStyle;rounded=0;orthogonalLoop=1;jettySize=auto;html=1;exitX=1;exitY=0.5;exitDx=0;exitDy=0;entryX=-0.003;entryY=0.85;entryDx=0;entryDy=0;entryPerimeter=0;" parent="1" source="_PfdmNzppAyqhTIvQ9N5-106" target="_PfdmNzppAyqhTIvQ9N5-108" edge="1">
          <mxGeometry relative="1" as="geometry" />
        </mxCell>
        <mxCell id="4HZwPF48nPItm0LzL9Oo-14" style="edgeStyle=orthogonalEdgeStyle;rounded=0;orthogonalLoop=1;jettySize=auto;html=1;exitX=1;exitY=0.5;exitDx=0;exitDy=0;entryX=0;entryY=0.5;entryDx=0;entryDy=0;" parent="1" source="4HZwPF48nPItm0LzL9Oo-10" target="_PfdmNzppAyqhTIvQ9N5-117" edge="1">
          <mxGeometry relative="1" as="geometry">
            <Array as="points">
              <mxPoint x="390" y="2480" />
              <mxPoint x="390" y="2480" />
            </Array>
          </mxGeometry>
        </mxCell>
        <mxCell id="4HZwPF48nPItm0LzL9Oo-20" style="edgeStyle=orthogonalEdgeStyle;rounded=0;orthogonalLoop=1;jettySize=auto;html=1;exitX=1;exitY=0.5;exitDx=0;exitDy=0;entryX=0;entryY=0.25;entryDx=0;entryDy=0;" parent="1" source="4HZwPF48nPItm0LzL9Oo-19" target="_PfdmNzppAyqhTIvQ9N5-71" edge="1">
          <mxGeometry relative="1" as="geometry">
            <Array as="points">
              <mxPoint x="180" y="1988" />
              <mxPoint x="180" y="2008" />
            </Array>
          </mxGeometry>
        </mxCell>
        <mxCell id="4HZwPF48nPItm0LzL9Oo-19" value="Device ID" style="rounded=1;whiteSpace=wrap;html=1;fillColor=#fff2cc;strokeColor=#d6b656;" parent="1" vertex="1">
          <mxGeometry x="40" y="1977.5" width="120" height="20" as="geometry" />
        </mxCell>
        <mxCell id="4HZwPF48nPItm0LzL9Oo-22" style="edgeStyle=orthogonalEdgeStyle;rounded=0;orthogonalLoop=1;jettySize=auto;html=1;exitX=1;exitY=0.5;exitDx=0;exitDy=0;entryX=0;entryY=0.25;entryDx=0;entryDy=0;" parent="1" source="4HZwPF48nPItm0LzL9Oo-21" target="_PfdmNzppAyqhTIvQ9N5-108" edge="1">
          <mxGeometry relative="1" as="geometry">
            <Array as="points">
              <mxPoint x="190" y="2390" />
              <mxPoint x="190" y="2400" />
            </Array>
          </mxGeometry>
        </mxCell>
        <mxCell id="4HZwPF48nPItm0LzL9Oo-21" value="Device ID" style="rounded=1;whiteSpace=wrap;html=1;fillColor=#fff2cc;strokeColor=#d6b656;" parent="1" vertex="1">
          <mxGeometry x="40" y="2380" width="120" height="20" as="geometry" />
        </mxCell>
        <mxCell id="3UM9oy7gZX9BhvrRxcKo-7" value="Channel Key (GS)" style="rounded=1;whiteSpace=wrap;html=1;fillColor=#d5e8d4;strokeColor=#82b366;" parent="1" vertex="1">
          <mxGeometry x="41.42999999999995" y="570" width="120" height="20" as="geometry" />
        </mxCell>
        <mxCell id="3UM9oy7gZX9BhvrRxcKo-8" style="edgeStyle=orthogonalEdgeStyle;rounded=0;orthogonalLoop=1;jettySize=auto;html=1;exitX=1;exitY=0.5;exitDx=0;exitDy=0;entryX=0;entryY=0.5;entryDx=0;entryDy=0;" parent="1" source="3UM9oy7gZX9BhvrRxcKo-9" target="3UM9oy7gZX9BhvrRxcKo-11" edge="1">
          <mxGeometry relative="1" as="geometry" />
        </mxCell>
        <mxCell id="3UM9oy7gZX9BhvrRxcKo-9" value="Time Stamp Start" style="rounded=1;whiteSpace=wrap;html=1;fillColor=#fff2cc;strokeColor=#d6b656;" parent="1" vertex="1">
          <mxGeometry x="41.42999999999995" y="627.5" width="120" height="20" as="geometry" />
        </mxCell>
        <mxCell id="3UM9oy7gZX9BhvrRxcKo-10" style="edgeStyle=orthogonalEdgeStyle;rounded=0;orthogonalLoop=1;jettySize=auto;html=1;exitX=1;exitY=0.5;exitDx=0;exitDy=0;entryX=0;entryY=0.5;entryDx=0;entryDy=0;" parent="1" source="3UM9oy7gZX9BhvrRxcKo-11" target="3UM9oy7gZX9BhvrRxcKo-13" edge="1">
          <mxGeometry relative="1" as="geometry">
            <mxPoint x="331.42999999999995" y="617.5" as="targetPoint" />
          </mxGeometry>
        </mxCell>
        <mxCell id="3UM9oy7gZX9BhvrRxcKo-11" value="KDF" style="rounded=0;whiteSpace=wrap;html=1;fillColor=#f5f5f5;fontColor=#333333;strokeColor=#666666;" parent="1" vertex="1">
          <mxGeometry x="231.42999999999995" y="617.5" width="70" height="40" as="geometry" />
        </mxCell>
        <mxCell id="3UM9oy7gZX9BhvrRxcKo-12" style="edgeStyle=orthogonalEdgeStyle;rounded=0;orthogonalLoop=1;jettySize=auto;html=1;exitX=1;exitY=0.5;exitDx=0;exitDy=0;entryX=0;entryY=0;entryDx=0;entryDy=0;" parent="1" source="3UM9oy7gZX9BhvrRxcKo-7" target="3UM9oy7gZX9BhvrRxcKo-11" edge="1">
          <mxGeometry relative="1" as="geometry">
            <Array as="points">
              <mxPoint x="191.42999999999995" y="580" />
              <mxPoint x="191.42999999999995" y="618" />
            </Array>
          </mxGeometry>
        </mxCell>
        <mxCell id="3UM9oy7gZX9BhvrRxcKo-13" value="Subscription Secret Key" style="rounded=1;whiteSpace=wrap;html=1;fillColor=#e1d5e7;strokeColor=#9673a6;" parent="1" vertex="1">
          <mxGeometry x="331.42999999999995" y="627.5" width="150" height="20" as="geometry" />
        </mxCell>
        <mxCell id="3UM9oy7gZX9BhvrRxcKo-14" style="edgeStyle=orthogonalEdgeStyle;rounded=0;orthogonalLoop=1;jettySize=auto;html=1;exitX=1;exitY=0.5;exitDx=0;exitDy=0;entryX=-0.004;entryY=0.932;entryDx=0;entryDy=0;entryPerimeter=0;" parent="1" source="3UM9oy7gZX9BhvrRxcKo-15" target="3UM9oy7gZX9BhvrRxcKo-11" edge="1">
          <mxGeometry relative="1" as="geometry">
            <Array as="points">
              <mxPoint x="191" y="700" />
              <mxPoint x="191" y="655" />
            </Array>
          </mxGeometry>
        </mxCell>
        <mxCell id="3UM9oy7gZX9BhvrRxcKo-15" value="Channel Num" style="rounded=1;whiteSpace=wrap;html=1;fillColor=#f8cecc;strokeColor=#b85450;" parent="1" vertex="1">
          <mxGeometry x="38.57" y="690" width="120" height="20" as="geometry" />
        </mxCell>
        <mxCell id="3UM9oy7gZX9BhvrRxcKo-17" style="edgeStyle=orthogonalEdgeStyle;rounded=0;orthogonalLoop=1;jettySize=auto;html=1;exitX=0.5;exitY=1;exitDx=0;exitDy=0;entryX=0.5;entryY=0;entryDx=0;entryDy=0;" parent="1" source="3UM9oy7gZX9BhvrRxcKo-18" target="3UM9oy7gZX9BhvrRxcKo-11" edge="1">
          <mxGeometry relative="1" as="geometry" />
        </mxCell>
        <mxCell id="3UM9oy7gZX9BhvrRxcKo-18" value="Subscription KDF Key (GS)" style="rounded=1;whiteSpace=wrap;html=1;fillColor=#d5e8d4;strokeColor=#82b366;" parent="1" vertex="1">
          <mxGeometry x="191.42999999999995" y="540" width="150" height="20" as="geometry" />
        </mxCell>
        <mxCell id="3UM9oy7gZX9BhvrRxcKo-19" value="Time Stamp End" style="rounded=1;whiteSpace=wrap;html=1;fillColor=#fff2cc;strokeColor=#d6b656;" parent="1" vertex="1">
          <mxGeometry x="41.42999999999995" y="662.5" width="120" height="20" as="geometry" />
        </mxCell>
        <mxCell id="3UM9oy7gZX9BhvrRxcKo-20" style="edgeStyle=orthogonalEdgeStyle;rounded=0;orthogonalLoop=1;jettySize=auto;html=1;exitX=1;exitY=0.5;exitDx=0;exitDy=0;entryX=-0.001;entryY=0.711;entryDx=0;entryDy=0;entryPerimeter=0;" parent="1" source="3UM9oy7gZX9BhvrRxcKo-19" target="3UM9oy7gZX9BhvrRxcKo-11" edge="1">
          <mxGeometry relative="1" as="geometry">
            <Array as="points">
              <mxPoint x="180" y="673" />
              <mxPoint x="180" y="646" />
            </Array>
          </mxGeometry>
        </mxCell>
        <mxCell id="3UM9oy7gZX9BhvrRxcKo-21" style="edgeStyle=orthogonalEdgeStyle;rounded=0;orthogonalLoop=1;jettySize=auto;html=1;exitX=1;exitY=0.5;exitDx=0;exitDy=0;entryX=0;entryY=0.25;entryDx=0;entryDy=0;" parent="1" source="3UM9oy7gZX9BhvrRxcKo-22" target="3UM9oy7gZX9BhvrRxcKo-11" edge="1">
          <mxGeometry relative="1" as="geometry">
            <Array as="points">
              <mxPoint x="181.42999999999995" y="608" />
              <mxPoint x="181.42999999999995" y="628" />
            </Array>
          </mxGeometry>
        </mxCell>
        <mxCell id="3UM9oy7gZX9BhvrRxcKo-22" value="Device ID" style="rounded=1;whiteSpace=wrap;html=1;fillColor=#fff2cc;strokeColor=#d6b656;" parent="1" vertex="1">
          <mxGeometry x="41.42999999999995" y="597.5" width="120" height="20" as="geometry" />
        </mxCell>
        <mxCell id="_PfdmNzppAyqhTIvQ9N5-87" value="Sign Data" style="text;html=1;align=center;verticalAlign=middle;whiteSpace=wrap;rounded=0;" parent="1" vertex="1">
          <mxGeometry x="507" y="2042.5" width="70" height="30" as="geometry" />
        </mxCell>
        <mxCell id="cAvwA4lJJM2ez4nOGZhI-2" style="edgeStyle=orthogonalEdgeStyle;rounded=0;orthogonalLoop=1;jettySize=auto;html=1;exitX=0.5;exitY=1;exitDx=0;exitDy=0;" parent="1" source="cAvwA4lJJM2ez4nOGZhI-1" target="_PfdmNzppAyqhTIvQ9N5-28" edge="1">
          <mxGeometry relative="1" as="geometry" />
        </mxCell>
        <mxCell id="cAvwA4lJJM2ez4nOGZhI-1" value="Frame KDF Key (GS)" style="rounded=1;whiteSpace=wrap;html=1;fillColor=#d5e8d4;strokeColor=#82b366;" parent="1" vertex="1">
          <mxGeometry x="180" y="980" width="150" height="20" as="geometry" />
        </mxCell>
        <mxCell id="cAvwA4lJJM2ez4nOGZhI-4" style="edgeStyle=orthogonalEdgeStyle;rounded=0;orthogonalLoop=1;jettySize=auto;html=1;exitX=0.5;exitY=1;exitDx=0;exitDy=0;entryX=0.5;entryY=0;entryDx=0;entryDy=0;" parent="1" source="cAvwA4lJJM2ez4nOGZhI-3" target="_PfdmNzppAyqhTIvQ9N5-32" edge="1">
          <mxGeometry relative="1" as="geometry" />
        </mxCell>
        <mxCell id="cAvwA4lJJM2ez4nOGZhI-3" value="Frame KDF Key (GS)" style="rounded=1;whiteSpace=wrap;html=1;fillColor=#d5e8d4;strokeColor=#82b366;" parent="1" vertex="1">
          <mxGeometry x="200" y="1280" width="150" height="20" as="geometry" />
        </mxCell>
        <mxCell id="cAvwA4lJJM2ez4nOGZhI-5" value="" style="rounded=1;whiteSpace=wrap;html=1;fillColor=#dae8fc;strokeColor=#6c8ebf;" parent="1" vertex="1">
          <mxGeometry x="1050" y="405" width="20" height="20" as="geometry" />
        </mxCell>
        <mxCell id="cAvwA4lJJM2ez4nOGZhI-6" value="Unverified Data" style="text;html=1;align=center;verticalAlign=middle;whiteSpace=wrap;rounded=0;" parent="1" vertex="1">
          <mxGeometry x="1075" y="400" width="100" height="30" as="geometry" />
        </mxCell>
        <mxCell id="cAvwA4lJJM2ez4nOGZhI-7" value="Attacker always has acess" style="text;html=1;align=left;verticalAlign=middle;whiteSpace=wrap;rounded=0;" parent="1" vertex="1">
          <mxGeometry x="885" y="400" width="100" height="30" as="geometry" />
        </mxCell>
        <mxCell id="cAvwA4lJJM2ez4nOGZhI-8" value="" style="rounded=1;whiteSpace=wrap;html=1;fillColor=#f8cecc;strokeColor=#b85450;" parent="1" vertex="1">
          <mxGeometry x="860" y="405" width="20" height="20" as="geometry" />
        </mxCell>
        <mxCell id="cAvwA4lJJM2ez4nOGZhI-11" value="Attacker has access&amp;nbsp; sometimes" style="text;html=1;align=left;verticalAlign=middle;whiteSpace=wrap;rounded=0;" parent="1" vertex="1">
          <mxGeometry x="885" y="360" width="135" height="30" as="geometry" />
        </mxCell>
        <mxCell id="cAvwA4lJJM2ez4nOGZhI-12" value="" style="rounded=1;whiteSpace=wrap;html=1;fillColor=#fff2cc;strokeColor=#d6b656;" parent="1" vertex="1">
          <mxGeometry x="860" y="365" width="20" height="20" as="geometry" />
        </mxCell>
        <mxCell id="cAvwA4lJJM2ez4nOGZhI-13" value="Attacker does not have acess&amp;nbsp;" style="text;html=1;align=left;verticalAlign=middle;whiteSpace=wrap;rounded=0;" parent="1" vertex="1">
          <mxGeometry x="885" y="320" width="155" height="30" as="geometry" />
        </mxCell>
        <mxCell id="cAvwA4lJJM2ez4nOGZhI-14" value="" style="rounded=1;whiteSpace=wrap;html=1;fillColor=#d5e8d4;strokeColor=#82b366;" parent="1" vertex="1">
          <mxGeometry x="860" y="325" width="20" height="20" as="geometry" />
        </mxCell>
        <mxCell id="cAvwA4lJJM2ez4nOGZhI-15" value="" style="rounded=1;whiteSpace=wrap;html=1;fillColor=#e1d5e7;strokeColor=#9673a6;" parent="1" vertex="1">
          <mxGeometry x="1050" y="325" width="20" height="20" as="geometry" />
        </mxCell>
        <mxCell id="cAvwA4lJJM2ez4nOGZhI-16" value="Secret key &lt;br&gt;(Do not leak!!)" style="text;html=1;align=left;verticalAlign=middle;whiteSpace=wrap;rounded=0;" parent="1" vertex="1">
          <mxGeometry x="1075" y="320" width="100" height="30" as="geometry" />
        </mxCell>
        <mxCell id="cAvwA4lJJM2ez4nOGZhI-17" value="Data to transfer securely" style="text;html=1;align=left;verticalAlign=middle;whiteSpace=wrap;rounded=0;" parent="1" vertex="1">
          <mxGeometry x="1075" y="360" width="100" height="30" as="geometry" />
        </mxCell>
        <mxCell id="cAvwA4lJJM2ez4nOGZhI-18" value="" style="rounded=1;whiteSpace=wrap;html=1;fillColor=#ffe6cc;strokeColor=#d79b00;" parent="1" vertex="1">
          <mxGeometry x="1050" y="365" width="20" height="20" as="geometry" />
        </mxCell>
        <mxCell id="cAvwA4lJJM2ez4nOGZhI-20" value="&lt;font style=&quot;font-size: 16px;&quot;&gt;Legend&lt;/font&gt;" style="text;html=1;align=center;verticalAlign=middle;whiteSpace=wrap;rounded=0;" parent="1" vertex="1">
          <mxGeometry x="860" y="280" width="300" height="30" as="geometry" />
        </mxCell>
        <mxCell id="cAvwA4lJJM2ez4nOGZhI-21" value="" style="rounded=1;whiteSpace=wrap;html=1;fillColor=#f5f5f5;strokeColor=#666666;fontColor=#333333;" parent="1" vertex="1">
          <mxGeometry x="860" y="445" width="20" height="20" as="geometry" />
        </mxCell>
        <mxCell id="cAvwA4lJJM2ez4nOGZhI-22" value="Function" style="text;html=1;align=left;verticalAlign=middle;whiteSpace=wrap;rounded=0;" parent="1" vertex="1">
          <mxGeometry x="885" y="440" width="100" height="30" as="geometry" />
        </mxCell>
        <mxCell id="1H_v1rwzwdLI8AuLXujV-1" value="" style="endArrow=none;dashed=1;html=1;dashPattern=1 3;strokeWidth=2;rounded=0;" edge="1" parent="1">
          <mxGeometry width="50" height="50" relative="1" as="geometry">
            <mxPoint x="880" y="1190" as="sourcePoint" />
            <mxPoint x="880" y="1080" as="targetPoint" />
          </mxGeometry>
        </mxCell>
        <mxCell id="1H_v1rwzwdLI8AuLXujV-3" value="" style="endArrow=none;dashed=1;html=1;dashPattern=1 3;strokeWidth=2;rounded=0;exitX=0.5;exitY=1;exitDx=0;exitDy=0;" edge="1" parent="1" source="1H_v1rwzwdLI8AuLXujV-37">
          <mxGeometry width="50" height="50" relative="1" as="geometry">
            <mxPoint x="1040" y="1190" as="sourcePoint" />
            <mxPoint x="1040" y="1079" as="targetPoint" />
          </mxGeometry>
        </mxCell>
        <mxCell id="1H_v1rwzwdLI8AuLXujV-4" value="" style="endArrow=none;dashed=1;html=1;dashPattern=1 3;strokeWidth=2;rounded=0;exitX=0.75;exitY=1;exitDx=0;exitDy=0;" edge="1" parent="1" source="1H_v1rwzwdLI8AuLXujV-37">
          <mxGeometry width="50" height="50" relative="1" as="geometry">
            <mxPoint x="1120" y="1220" as="sourcePoint" />
            <mxPoint x="1120" y="1080" as="targetPoint" />
          </mxGeometry>
        </mxCell>
        <mxCell id="1H_v1rwzwdLI8AuLXujV-5" value="0" style="text;html=1;align=center;verticalAlign=middle;whiteSpace=wrap;rounded=0;" vertex="1" parent="1">
          <mxGeometry x="880" y="1055" width="20" height="20" as="geometry" />
        </mxCell>
        <mxCell id="1H_v1rwzwdLI8AuLXujV-6" value="7 : 8" style="text;html=1;align=center;verticalAlign=middle;whiteSpace=wrap;rounded=0;" vertex="1" parent="1">
          <mxGeometry x="943.75" y="1055" width="37.5" height="20" as="geometry" />
        </mxCell>
        <mxCell id="1H_v1rwzwdLI8AuLXujV-8" value="15 : 16" style="text;html=1;align=center;verticalAlign=middle;whiteSpace=wrap;rounded=0;" vertex="1" parent="1">
          <mxGeometry x="1020" y="1055" width="40" height="20" as="geometry" />
        </mxCell>
        <mxCell id="1H_v1rwzwdLI8AuLXujV-9" value="23 : 24" style="text;html=1;align=center;verticalAlign=middle;whiteSpace=wrap;rounded=0;" vertex="1" parent="1">
          <mxGeometry x="1100" y="1055" width="40" height="20" as="geometry" />
        </mxCell>
        <mxCell id="1H_v1rwzwdLI8AuLXujV-10" value="" style="endArrow=none;dashed=1;html=1;dashPattern=1 3;strokeWidth=2;rounded=0;exitX=1;exitY=1;exitDx=0;exitDy=0;" edge="1" parent="1" source="1H_v1rwzwdLI8AuLXujV-37">
          <mxGeometry width="50" height="50" relative="1" as="geometry">
            <mxPoint x="1200" y="1190" as="sourcePoint" />
            <mxPoint x="1200" y="1079" as="targetPoint" />
          </mxGeometry>
        </mxCell>
        <mxCell id="1H_v1rwzwdLI8AuLXujV-11" value="31" style="text;html=1;align=center;verticalAlign=middle;whiteSpace=wrap;rounded=0;" vertex="1" parent="1">
          <mxGeometry x="1180" y="1055" width="20" height="20" as="geometry" />
        </mxCell>
        <mxCell id="1H_v1rwzwdLI8AuLXujV-15" value="Channel Num" style="rounded=1;whiteSpace=wrap;html=1;fillColor=#f8cecc;strokeColor=#b85450;" vertex="1" parent="1">
          <mxGeometry x="960" y="1100" width="80" height="20" as="geometry" />
        </mxCell>
        <mxCell id="1H_v1rwzwdLI8AuLXujV-16" value="0" style="text;html=1;align=center;verticalAlign=middle;whiteSpace=wrap;rounded=0;" vertex="1" parent="1">
          <mxGeometry x="850" y="1082.5" width="25" height="15" as="geometry" />
        </mxCell>
        <mxCell id="1H_v1rwzwdLI8AuLXujV-17" value="4" style="text;html=1;align=center;verticalAlign=middle;whiteSpace=wrap;rounded=0;" vertex="1" parent="1">
          <mxGeometry x="850" y="1100" width="25" height="15" as="geometry" />
        </mxCell>
        <mxCell id="1H_v1rwzwdLI8AuLXujV-28" style="edgeStyle=orthogonalEdgeStyle;rounded=0;orthogonalLoop=1;jettySize=auto;html=1;exitX=0.5;exitY=1;exitDx=0;exitDy=0;entryX=0.5;entryY=0;entryDx=0;entryDy=0;" edge="1" parent="1" source="1H_v1rwzwdLI8AuLXujV-22" target="1H_v1rwzwdLI8AuLXujV-27">
          <mxGeometry relative="1" as="geometry" />
        </mxCell>
        <mxCell id="1H_v1rwzwdLI8AuLXujV-22" value="8" style="text;html=1;align=center;verticalAlign=middle;whiteSpace=wrap;rounded=0;" vertex="1" parent="1">
          <mxGeometry x="850" y="1122.5" width="25" height="15" as="geometry" />
        </mxCell>
        <mxCell id="1H_v1rwzwdLI8AuLXujV-23" value="Bit Offset" style="text;html=1;align=center;verticalAlign=middle;whiteSpace=wrap;rounded=0;" vertex="1" parent="1">
          <mxGeometry x="880" y="1040" width="320" height="20" as="geometry" />
        </mxCell>
        <mxCell id="1H_v1rwzwdLI8AuLXujV-24" value="Byte Offset" style="text;html=1;align=center;verticalAlign=middle;whiteSpace=wrap;rounded=0;" vertex="1" parent="1">
          <mxGeometry x="800" y="1122.5" width="60" height="30" as="geometry" />
        </mxCell>
        <mxCell id="1H_v1rwzwdLI8AuLXujV-27" value="68" style="text;html=1;align=center;verticalAlign=middle;whiteSpace=wrap;rounded=0;" vertex="1" parent="1">
          <mxGeometry x="850" y="1150" width="25" height="15" as="geometry" />
        </mxCell>
        <mxCell id="1H_v1rwzwdLI8AuLXujV-30" value="" style="endArrow=none;dashed=1;html=1;dashPattern=1 3;strokeWidth=2;rounded=0;" edge="1" parent="1" target="1H_v1rwzwdLI8AuLXujV-29">
          <mxGeometry width="50" height="50" relative="1" as="geometry">
            <mxPoint x="1120" y="1170" as="sourcePoint" />
            <mxPoint x="1120" y="1080" as="targetPoint" />
          </mxGeometry>
        </mxCell>
        <mxCell id="1H_v1rwzwdLI8AuLXujV-2" value="" style="endArrow=none;dashed=1;html=1;dashPattern=1 3;strokeWidth=2;rounded=0;exitX=0.25;exitY=1;exitDx=0;exitDy=0;" edge="1" parent="1" source="1H_v1rwzwdLI8AuLXujV-37">
          <mxGeometry width="50" height="50" relative="1" as="geometry">
            <mxPoint x="960" y="1190" as="sourcePoint" />
            <mxPoint x="962" y="1080" as="targetPoint" />
          </mxGeometry>
        </mxCell>
        <mxCell id="1H_v1rwzwdLI8AuLXujV-35" value="72" style="text;html=1;align=center;verticalAlign=middle;whiteSpace=wrap;rounded=0;" vertex="1" parent="1">
          <mxGeometry x="850" y="1169" width="25" height="15" as="geometry" />
        </mxCell>
        <mxCell id="1H_v1rwzwdLI8AuLXujV-36" value="Encrypted Frame Structure" style="text;html=1;align=center;verticalAlign=middle;whiteSpace=wrap;rounded=0;fontSize=16;" vertex="1" parent="1">
          <mxGeometry x="875" y="1010" width="320" height="30" as="geometry" />
        </mxCell>
        <mxCell id="1H_v1rwzwdLI8AuLXujV-39" value="76" style="text;html=1;align=center;verticalAlign=middle;whiteSpace=wrap;rounded=0;" vertex="1" parent="1">
          <mxGeometry x="850" y="1189" width="25" height="15" as="geometry" />
        </mxCell>
        <mxCell id="1H_v1rwzwdLI8AuLXujV-43" value="MIC" style="rounded=1;whiteSpace=wrap;html=1;fillColor=#f8cecc;strokeColor=#b85450;" vertex="1" parent="1">
          <mxGeometry x="939.71" y="2129" width="320" height="20" as="geometry" />
        </mxCell>
        <mxCell id="1H_v1rwzwdLI8AuLXujV-44" value="MIC" style="rounded=1;whiteSpace=wrap;html=1;fillColor=#f8cecc;strokeColor=#b85450;" vertex="1" parent="1">
          <mxGeometry x="939.71" y="2149" width="320" height="20" as="geometry" />
        </mxCell>
        <mxCell id="1H_v1rwzwdLI8AuLXujV-45" value="MIC" style="rounded=1;whiteSpace=wrap;html=1;fillColor=#f8cecc;strokeColor=#b85450;" vertex="1" parent="1">
          <mxGeometry x="1099.71" y="2107.5" width="160" height="20" as="geometry" />
        </mxCell>
        <mxCell id="1H_v1rwzwdLI8AuLXujV-49" value="Time Start" style="rounded=1;whiteSpace=wrap;html=1;fillColor=#f8cecc;strokeColor=#b85450;" vertex="1" parent="1">
          <mxGeometry x="939.71" y="2087.5" width="80" height="20" as="geometry" />
        </mxCell>
        <mxCell id="1H_v1rwzwdLI8AuLXujV-50" value="Time Start" style="rounded=1;whiteSpace=wrap;html=1;fillColor=#f8cecc;strokeColor=#b85450;" vertex="1" parent="1">
          <mxGeometry x="1019.71" y="2067.5" width="240" height="20" as="geometry" />
        </mxCell>
        <mxCell id="1H_v1rwzwdLI8AuLXujV-51" value="Packet Length" style="rounded=1;whiteSpace=wrap;html=1;fillColor=#f8cecc;strokeColor=#b85450;" vertex="1" parent="1">
          <mxGeometry x="939.71" y="2067.5" width="80" height="20" as="geometry" />
        </mxCell>
        <mxCell id="1H_v1rwzwdLI8AuLXujV-52" value="" style="endArrow=none;dashed=1;html=1;dashPattern=1 3;strokeWidth=2;rounded=0;" edge="1" parent="1">
          <mxGeometry width="50" height="50" relative="1" as="geometry">
            <mxPoint x="940" y="2170" as="sourcePoint" />
            <mxPoint x="939.71" y="2067.5" as="targetPoint" />
          </mxGeometry>
        </mxCell>
        <mxCell id="1H_v1rwzwdLI8AuLXujV-55" value="0" style="text;html=1;align=center;verticalAlign=middle;whiteSpace=wrap;rounded=0;" vertex="1" parent="1">
          <mxGeometry x="939.71" y="2042.5" width="20" height="20" as="geometry" />
        </mxCell>
        <mxCell id="1H_v1rwzwdLI8AuLXujV-56" value="7 : 8" style="text;html=1;align=center;verticalAlign=middle;whiteSpace=wrap;rounded=0;" vertex="1" parent="1">
          <mxGeometry x="1003.46" y="2042.5" width="37.5" height="20" as="geometry" />
        </mxCell>
        <mxCell id="1H_v1rwzwdLI8AuLXujV-57" value="15 : 16" style="text;html=1;align=center;verticalAlign=middle;whiteSpace=wrap;rounded=0;" vertex="1" parent="1">
          <mxGeometry x="1079.71" y="2042.5" width="40" height="20" as="geometry" />
        </mxCell>
        <mxCell id="1H_v1rwzwdLI8AuLXujV-58" value="23 : 24" style="text;html=1;align=center;verticalAlign=middle;whiteSpace=wrap;rounded=0;" vertex="1" parent="1">
          <mxGeometry x="1159.71" y="2042.5" width="40" height="20" as="geometry" />
        </mxCell>
        <mxCell id="1H_v1rwzwdLI8AuLXujV-59" value="" style="endArrow=none;dashed=1;html=1;dashPattern=1 3;strokeWidth=2;rounded=0;exitX=1;exitY=1;exitDx=0;exitDy=0;" edge="1" parent="1" source="1H_v1rwzwdLI8AuLXujV-44">
          <mxGeometry width="50" height="50" relative="1" as="geometry">
            <mxPoint x="1259.71" y="2177.5" as="sourcePoint" />
            <mxPoint x="1259.71" y="2066.5" as="targetPoint" />
          </mxGeometry>
        </mxCell>
        <mxCell id="1H_v1rwzwdLI8AuLXujV-60" value="31" style="text;html=1;align=center;verticalAlign=middle;whiteSpace=wrap;rounded=0;" vertex="1" parent="1">
          <mxGeometry x="1239.71" y="2042.5" width="20" height="20" as="geometry" />
        </mxCell>
        <mxCell id="1H_v1rwzwdLI8AuLXujV-62" value="0" style="text;html=1;align=center;verticalAlign=middle;whiteSpace=wrap;rounded=0;" vertex="1" parent="1">
          <mxGeometry x="909.71" y="2070" width="25" height="15" as="geometry" />
        </mxCell>
        <mxCell id="1H_v1rwzwdLI8AuLXujV-63" value="4" style="text;html=1;align=center;verticalAlign=middle;whiteSpace=wrap;rounded=0;" vertex="1" parent="1">
          <mxGeometry x="909.71" y="2087.5" width="25" height="15" as="geometry" />
        </mxCell>
        <mxCell id="1H_v1rwzwdLI8AuLXujV-65" value="8" style="text;html=1;align=center;verticalAlign=middle;whiteSpace=wrap;rounded=0;" vertex="1" parent="1">
          <mxGeometry x="909.71" y="2110" width="25" height="15" as="geometry" />
        </mxCell>
        <mxCell id="1H_v1rwzwdLI8AuLXujV-66" value="Bit Offset" style="text;html=1;align=center;verticalAlign=middle;whiteSpace=wrap;rounded=0;" vertex="1" parent="1">
          <mxGeometry x="939.71" y="2027.5" width="320" height="20" as="geometry" />
        </mxCell>
        <mxCell id="1H_v1rwzwdLI8AuLXujV-67" value="Byte Offset" style="text;html=1;align=center;verticalAlign=middle;whiteSpace=wrap;rounded=0;" vertex="1" parent="1">
          <mxGeometry x="859.71" y="2110" width="60" height="30" as="geometry" />
        </mxCell>
        <mxCell id="1H_v1rwzwdLI8AuLXujV-68" value="12" style="text;html=1;align=center;verticalAlign=middle;whiteSpace=wrap;rounded=0;" vertex="1" parent="1">
          <mxGeometry x="909.71" y="2131.5" width="25" height="15" as="geometry" />
        </mxCell>
        <mxCell id="1H_v1rwzwdLI8AuLXujV-69" value="" style="endArrow=none;dashed=1;html=1;dashPattern=1 3;strokeWidth=2;rounded=0;" edge="1" parent="1" target="1H_v1rwzwdLI8AuLXujV-45">
          <mxGeometry width="50" height="50" relative="1" as="geometry">
            <mxPoint x="1179.71" y="2130" as="sourcePoint" />
            <mxPoint x="1179.71" y="2040" as="targetPoint" />
          </mxGeometry>
        </mxCell>
        <mxCell id="1H_v1rwzwdLI8AuLXujV-71" value="16" style="text;html=1;align=center;verticalAlign=middle;whiteSpace=wrap;rounded=0;" vertex="1" parent="1">
          <mxGeometry x="909.71" y="2151.5" width="25" height="15" as="geometry" />
        </mxCell>
        <mxCell id="1H_v1rwzwdLI8AuLXujV-72" value="Subscription Update Structure" style="text;html=1;align=center;verticalAlign=middle;whiteSpace=wrap;rounded=0;fontSize=16;" vertex="1" parent="1">
          <mxGeometry x="934.71" y="1997.5" width="320" height="30" as="geometry" />
        </mxCell>
        <mxCell id="1H_v1rwzwdLI8AuLXujV-74" value="Time End" style="rounded=1;whiteSpace=wrap;html=1;fillColor=#f8cecc;strokeColor=#b85450;" vertex="1" parent="1">
          <mxGeometry x="1019.71" y="2087.5" width="240" height="20" as="geometry" />
        </mxCell>
        <mxCell id="1H_v1rwzwdLI8AuLXujV-75" value="Time End" style="rounded=1;whiteSpace=wrap;html=1;fillColor=#f8cecc;strokeColor=#b85450;" vertex="1" parent="1">
          <mxGeometry x="939.71" y="2107.5" width="80" height="20" as="geometry" />
        </mxCell>
        <mxCell id="1H_v1rwzwdLI8AuLXujV-76" value="Channel Num" style="rounded=1;whiteSpace=wrap;html=1;fillColor=#f8cecc;strokeColor=#b85450;" vertex="1" parent="1">
          <mxGeometry x="1020" y="2107.5" width="80" height="20" as="geometry" />
        </mxCell>
        <mxCell id="1H_v1rwzwdLI8AuLXujV-53" value="" style="endArrow=none;dashed=1;html=1;dashPattern=1 3;strokeWidth=2;rounded=0;exitX=0.5;exitY=1;exitDx=0;exitDy=0;" edge="1" parent="1" source="1H_v1rwzwdLI8AuLXujV-44">
          <mxGeometry width="50" height="50" relative="1" as="geometry">
            <mxPoint x="1099.71" y="2177.5" as="sourcePoint" />
            <mxPoint x="1099.71" y="2066.5" as="targetPoint" />
          </mxGeometry>
        </mxCell>
        <mxCell id="1H_v1rwzwdLI8AuLXujV-54" value="" style="endArrow=none;dashed=1;html=1;dashPattern=1 3;strokeWidth=2;rounded=0;exitX=0.75;exitY=1;exitDx=0;exitDy=0;" edge="1" parent="1" source="1H_v1rwzwdLI8AuLXujV-44">
          <mxGeometry width="50" height="50" relative="1" as="geometry">
            <mxPoint x="1179.71" y="2207.5" as="sourcePoint" />
            <mxPoint x="1179.71" y="2067.5" as="targetPoint" />
          </mxGeometry>
        </mxCell>
        <mxCell id="1H_v1rwzwdLI8AuLXujV-70" value="" style="endArrow=none;dashed=1;html=1;dashPattern=1 3;strokeWidth=2;rounded=0;exitX=0.25;exitY=1;exitDx=0;exitDy=0;" edge="1" parent="1" source="1H_v1rwzwdLI8AuLXujV-44">
          <mxGeometry width="50" height="50" relative="1" as="geometry">
            <mxPoint x="1019.71" y="2177.5" as="sourcePoint" />
            <mxPoint x="1021.71" y="2067.5" as="targetPoint" />
          </mxGeometry>
        </mxCell>
      </root>
    </mxGraphModel>
  </diagram>
</mxfile>
